<?xml version="1.0" encoding="UTF-8" standalone="no"?>
<!-- Created with Inkscape (http://www.inkscape.org/) -->

<svg
   width="1922.0376"
   height="915.90167"
   viewBox="0 0 508.53911 242.33232"
   version="1.1"
   id="svg573"
   inkscape:version="1.2.1 (1:1.2.1+202210291243+9c6d41e410)"
   sodipodi:docname="maria_segway.svg"
   xml:space="preserve"
   xmlns:inkscape="http://www.inkscape.org/namespaces/inkscape"
   xmlns:sodipodi="http://sodipodi.sourceforge.net/DTD/sodipodi-0.dtd"
   xmlns="http://www.w3.org/2000/svg"
   xmlns:svg="http://www.w3.org/2000/svg"><sodipodi:namedview
     id="namedview575"
     pagecolor="#ffffff"
     bordercolor="#666666"
     borderopacity="1.0"
     inkscape:showpageshadow="2"
     inkscape:pageopacity="0.0"
     inkscape:pagecheckerboard="0"
     inkscape:deskcolor="#d1d1d1"
     inkscape:document-units="mm"
     showgrid="false"
     inkscape:zoom="0.46495267"
     inkscape:cx="923.74993"
     inkscape:cy="674.26217"
     inkscape:window-width="1846"
     inkscape:window-height="1016"
     inkscape:window-x="74"
     inkscape:window-y="27"
     inkscape:window-maximized="1"
     inkscape:current-layer="layer1"
     showguides="true" /><defs
     id="defs570"><pattern
       patternUnits="userSpaceOnUse"
       width="50.260043"
       height="37.694409"
       patternTransform="matrix(0.26458331,0,0,0.26458331,39.526125,62.056557)"
       id="pattern13500"><g
         id="use13498"
         transform="matrix(3.7795279,0,0,3.7795279,-77.89009,-234.54449)"><rect
           id="rect13530"
           y="62.056557"
           x="20.608419"
           height="9.9733095"
           width="13.297967"
           style="fill:none;stroke:none;stroke-width:0.61472619" /><path
           inkscape:connector-curvature="0"
           d="m 30.581893,62.056559 3.324491,4.986654 -3.324491,4.986654 -3.32449,-4.986654 z m -6.648981,10e-7 3.32449,4.986654 -3.32449,4.986654 -3.32449,-4.986654 z"
           style="opacity:1;vector-effect:none;fill:#555555;fill-opacity:1;stroke:none;stroke-width:0.88533551;stroke-linecap:butt;stroke-linejoin:bevel;stroke-miterlimit:4;stroke-dasharray:2.65600656, 2.65600656;stroke-dashoffset:0;stroke-opacity:1;paint-order:markers stroke fill"
           id="path13532" /><path
           inkscape:connector-curvature="0"
           d="m 27.257404,62.05656 3.324489,-10e-7 -3.32449,4.986654 -3.324491,-4.986654 z m -1e-6,4.986654 3.32449,4.986654 -3.324489,-2e-6 -3.324492,2e-6 z"
           style="opacity:1;vector-effect:none;fill:#16502d;fill-opacity:1;stroke:none;stroke-width:0.88533551;stroke-linecap:butt;stroke-linejoin:bevel;stroke-miterlimit:4;stroke-dasharray:2.65600656, 2.65600656;stroke-dashoffset:0;stroke-opacity:1;paint-order:markers stroke fill"
           id="path13534" /><path
           inkscape:connector-curvature="0"
           d="m 33.906385,67.043213 v 4.986653 0 l -3.324491,10e-7 z m -13.297963,1e-6 3.32449,4.986654 -3.324489,-2e-6 z m 10e-7,-4.986654 3.32449,-2e-6 -3.32449,4.986655 z m 13.297962,0 v 0 l -10e-7,4.986653 -3.32449,-4.986655 z"
           style="opacity:1;vector-effect:none;fill:#19a974;fill-opacity:1;stroke:none;stroke-width:0.88533551;stroke-linecap:butt;stroke-linejoin:bevel;stroke-miterlimit:4;stroke-dasharray:2.65600653, 2.65600653;stroke-dashoffset:0;stroke-opacity:1;paint-order:markers stroke fill"
           id="path13536" /><path
           id="path13538"
           style="opacity:1;vector-effect:none;fill:#137752;fill-opacity:1;stroke:#000000;stroke-width:0.21277149;stroke-linecap:round;stroke-linejoin:miter;stroke-miterlimit:4;stroke-dasharray:0.2127715, 0.42554299;stroke-dashoffset:0;stroke-opacity:1"
           d="m 27.257401,71.922222 -6.541749,-9.758016 m 13.083499,9.758016 -6.541748,-9.758017 m 0,9.758017 6.541748,-9.758017 m -13.083499,9.758017 6.54175,-9.758017"
           inkscape:connector-curvature="0"
           sodipodi:nodetypes="cccccccc" /></g></pattern><pattern
       patternUnits="userSpaceOnUse"
       width="50.260043"
       height="37.694409"
       patternTransform="matrix(0.26458331,0,0,0.26458331,39.526125,62.056557)"
       id="pattern13500-5"><g
         id="use13498-6"
         transform="matrix(3.7795279,0,0,3.7795279,-77.89009,-234.54449)"><rect
           id="rect13530-2"
           y="62.056557"
           x="20.608419"
           height="9.9733095"
           width="13.297967"
           style="fill:none;stroke:none;stroke-width:0.61472619" /><path
           inkscape:connector-curvature="0"
           d="m 30.581893,62.056559 3.324491,4.986654 -3.324491,4.986654 -3.32449,-4.986654 z m -6.648981,10e-7 3.32449,4.986654 -3.32449,4.986654 -3.32449,-4.986654 z"
           style="opacity:1;vector-effect:none;fill:#555555;fill-opacity:1;stroke:none;stroke-width:0.88533551;stroke-linecap:butt;stroke-linejoin:bevel;stroke-miterlimit:4;stroke-dasharray:2.65600656, 2.65600656;stroke-dashoffset:0;stroke-opacity:1;paint-order:markers stroke fill"
           id="path13532-9" /><path
           inkscape:connector-curvature="0"
           d="m 27.257404,62.05656 3.324489,-10e-7 -3.32449,4.986654 -3.324491,-4.986654 z m -1e-6,4.986654 3.32449,4.986654 -3.324489,-2e-6 -3.324492,2e-6 z"
           style="opacity:1;vector-effect:none;fill:#16502d;fill-opacity:1;stroke:none;stroke-width:0.88533551;stroke-linecap:butt;stroke-linejoin:bevel;stroke-miterlimit:4;stroke-dasharray:2.65600656, 2.65600656;stroke-dashoffset:0;stroke-opacity:1;paint-order:markers stroke fill"
           id="path13534-1" /><path
           inkscape:connector-curvature="0"
           d="m 33.906385,67.043213 v 4.986653 0 l -3.324491,10e-7 z m -13.297963,1e-6 3.32449,4.986654 -3.324489,-2e-6 z m 10e-7,-4.986654 3.32449,-2e-6 -3.32449,4.986655 z m 13.297962,0 v 0 l -10e-7,4.986653 -3.32449,-4.986655 z"
           style="opacity:1;vector-effect:none;fill:#19a974;fill-opacity:1;stroke:none;stroke-width:0.88533551;stroke-linecap:butt;stroke-linejoin:bevel;stroke-miterlimit:4;stroke-dasharray:2.65600653, 2.65600653;stroke-dashoffset:0;stroke-opacity:1;paint-order:markers stroke fill"
           id="path13536-2" /><path
           id="path13538-7"
           style="opacity:1;vector-effect:none;fill:#137752;fill-opacity:1;stroke:#000000;stroke-width:0.21277149;stroke-linecap:round;stroke-linejoin:miter;stroke-miterlimit:4;stroke-dasharray:0.2127715, 0.42554299;stroke-dashoffset:0;stroke-opacity:1"
           d="m 27.257401,71.922222 -6.541749,-9.758016 m 13.083499,9.758016 -6.541748,-9.758017 m 0,9.758017 6.541748,-9.758017 m -13.083499,9.758017 6.54175,-9.758017"
           inkscape:connector-curvature="0"
           sodipodi:nodetypes="cccccccc" /></g></pattern><pattern
       patternUnits="userSpaceOnUse"
       width="50.260043"
       height="37.694409"
       patternTransform="matrix(0.26458331,0,0,0.26458331,39.526125,62.056557)"
       id="pattern13500-5-8"><g
         id="use13498-6-7"
         transform="matrix(3.7795279,0,0,3.7795279,-77.89009,-234.54449)"><rect
           id="rect13530-2-9"
           y="62.056557"
           x="20.608419"
           height="9.9733095"
           width="13.297967"
           style="fill:none;stroke:none;stroke-width:0.61472619" /><path
           inkscape:connector-curvature="0"
           d="m 30.581893,62.056559 3.324491,4.986654 -3.324491,4.986654 -3.32449,-4.986654 z m -6.648981,10e-7 3.32449,4.986654 -3.32449,4.986654 -3.32449,-4.986654 z"
           style="opacity:1;vector-effect:none;fill:#555555;fill-opacity:1;stroke:none;stroke-width:0.88533551;stroke-linecap:butt;stroke-linejoin:bevel;stroke-miterlimit:4;stroke-dasharray:2.65600656, 2.65600656;stroke-dashoffset:0;stroke-opacity:1;paint-order:markers stroke fill"
           id="path13532-9-2" /><path
           inkscape:connector-curvature="0"
           d="m 27.257404,62.05656 3.324489,-10e-7 -3.32449,4.986654 -3.324491,-4.986654 z m -1e-6,4.986654 3.32449,4.986654 -3.324489,-2e-6 -3.324492,2e-6 z"
           style="opacity:1;vector-effect:none;fill:#16502d;fill-opacity:1;stroke:none;stroke-width:0.88533551;stroke-linecap:butt;stroke-linejoin:bevel;stroke-miterlimit:4;stroke-dasharray:2.65600656, 2.65600656;stroke-dashoffset:0;stroke-opacity:1;paint-order:markers stroke fill"
           id="path13534-1-0" /><path
           inkscape:connector-curvature="0"
           d="m 33.906385,67.043213 v 4.986653 0 l -3.324491,10e-7 z m -13.297963,1e-6 3.32449,4.986654 -3.324489,-2e-6 z m 10e-7,-4.986654 3.32449,-2e-6 -3.32449,4.986655 z m 13.297962,0 v 0 l -10e-7,4.986653 -3.32449,-4.986655 z"
           style="opacity:1;vector-effect:none;fill:#19a974;fill-opacity:1;stroke:none;stroke-width:0.88533551;stroke-linecap:butt;stroke-linejoin:bevel;stroke-miterlimit:4;stroke-dasharray:2.65600653, 2.65600653;stroke-dashoffset:0;stroke-opacity:1;paint-order:markers stroke fill"
           id="path13536-2-2" /><path
           id="path13538-7-3"
           style="opacity:1;vector-effect:none;fill:#137752;fill-opacity:1;stroke:#000000;stroke-width:0.21277149;stroke-linecap:round;stroke-linejoin:miter;stroke-miterlimit:4;stroke-dasharray:0.2127715, 0.42554299;stroke-dashoffset:0;stroke-opacity:1"
           d="m 27.257401,71.922222 -6.541749,-9.758016 m 13.083499,9.758016 -6.541748,-9.758017 m 0,9.758017 6.541748,-9.758017 m -13.083499,9.758017 6.54175,-9.758017"
           inkscape:connector-curvature="0"
           sodipodi:nodetypes="cccccccc" /></g></pattern></defs><g
     inkscape:label="Layer 1"
     inkscape:groupmode="layer"
     id="layer1"
     transform="translate(0,-43.41769)"><g
       id="stuur"
       transform="rotate(9.5603333,185.58856,286.4685)"
       inkscape:transform-center-x="-42.657256"
       inkscape:transform-center-y="-45.573779"><path
         style="fill:none;stroke:#357edd;stroke-width:7.9375;stroke-linecap:round;stroke-linejoin:miter;stroke-dasharray:none;stroke-opacity:1"
         d="M 313.70807,227.48635 333.14209,111.36258"
         id="path25337" /><path
         style="fill:none;fill-opacity:0;stroke:#333333;stroke-width:5.29167;stroke-linecap:round;stroke-linejoin:miter;stroke-dasharray:none;stroke-opacity:1"
         d="m 333.14209,111.36258 c -3.54855,5.32662 -9.98994,5.73194 -16.29656,6.36649"
         id="path26081"
         sodipodi:nodetypes="cc" /></g><g
       id="maria"
       inkscape:transform-center-x="-24.794656"
       inkscape:transform-center-y="-97.996122"
       transform="rotate(9.5603333,308.87618,112.95765)"><path
         style="fill:none;stroke:#000000;stroke-width:18.213;stroke-linecap:round;stroke-linejoin:miter;stroke-dasharray:none;stroke-opacity:1"
         d="m 319.68405,219.01044 c 6.85788,-21.22943 9.89814,-29.84687 9.89814,-44.01069"
         id="path3207-9"
         sodipodi:nodetypes="cc" /><g
         id="g28506"
         transform="translate(114.51436,-45.134205)"><path
           sodipodi:nodetypes="sssssssss"
           inkscape:connector-curvature="0"
           id="path4113-1-9"
           d="m 196.63808,208.27112 c 6.26255,12.89437 -21.71039,27.92086 -15.98471,37.65606 3.08325,5.24237 37.37133,4.51689 41.84343,2.07246 4.19782,-2.2945 12.82662,-17.95697 10.69257,-40.77534 -0.71529,-7.64817 1.32642,-29.9583 4.30919,-42.27004 2.30268,-9.50457 -4.07876,-26.79484 -19.11537,-27.54361 -20.79388,-1.03548 -19.45464,35.21925 -20.06932,42.06775 -0.60798,6.77394 -5.74304,20.41838 -1.6758,28.79272 z"
           style="fill:#357edd;fill-opacity:1;fill-rule:nonzero;stroke-width:0.613444" /><g
           transform="matrix(0.42384263,0,0,0.42384263,169.48391,166.49005)"
           id="g3567-6-7"><path
             inkscape:connector-curvature="0"
             style="fill:#ffb700;stroke-width:0.20051"
             d="m 85.88079,26.03675 c 1.142906,0 2.085302,0.942396 2.085302,2.085302 0,1.142906 -0.942396,2.085302 -2.085302,2.085302 -1.142906,0 -2.085302,-0.942396 -2.085302,-2.085302 0,-1.162958 0.922344,-2.085302 2.085302,-2.085302 z"
             id="path3558-0-3" /><path
             inkscape:connector-curvature="0"
             style="fill:#f4f4f4;stroke-width:0.20051"
             d="m 81.469572,31.410414 2.285812,-1.283264 c 0.40102,0.421072 0.922346,0.721836 1.503826,0.842142 l -0.0401,2.366016 c -0.02004,1.543926 -0.902296,2.927444 -2.62668,2.927444 -1.42362,0 -2.586578,-1.122854 -2.586578,-2.566526 0,-1.22311 0.822092,-1.944946 1.46372,-2.285812 z"
             id="path3556-8-6" /><path
             inkscape:connector-curvature="0"
             style="fill:#f4f4f4;stroke-width:0.20051"
             d="m 86.482318,25.25476 0.02006,-2.486322 c 0.02004,-1.563976 0.922346,-2.827188 2.586578,-2.827188 1.44367,0 2.566526,1.183008 2.566526,2.566526 0,1.263212 -0.681734,1.884792 -1.784538,2.546476 l -1.82464,1.082752 c -0.40102,-0.441122 -0.942396,-0.761938 -1.563978,-0.882244 z"
             id="path3554-9-1" /><path
             inkscape:connector-curvature="0"
             style="fill:#f4f4f4;stroke-width:0.20051"
             d="m 82.63253,19.981352 c 1.804588,0 2.62668,1.403568 2.62668,3.04775 l -0.02006,2.225658 c -0.62158,0.14036 -1.162956,0.461174 -1.563976,0.922346 l -1.884786,-1.102804 c -1.122854,-0.681734 -1.724384,-1.363466 -1.724384,-2.526424 0,-1.463722 1.122854,-2.566526 2.566526,-2.566526 z"
             id="path3552-2-2" /><path
             inkscape:connector-curvature="0"
             style="fill:#f4f4f4;stroke-width:0.20051"
             d="m 88.667876,27.219758 2.325914,-1.243162 c 0.501276,-0.260662 1.00255,-0.40102 1.443672,-0.40102 1.383518,0 2.486322,1.243162 2.486322,2.606628 0,1.303314 -1.102804,2.566528 -2.466272,2.566528 -0.501274,0 -1.102804,-0.1604 -1.704332,-0.521326 l -2.105354,-1.22311 c 0.0802,-0.280714 0.14036,-0.58148 0.14036,-0.902294 0.02004,-0.300766 -0.02004,-0.60153 -0.1203,-0.882244 z"
             id="path3550-2-9" /><path
             inkscape:connector-curvature="0"
             style="fill:#f4f4f4;stroke-width:0.20051"
             d="m 79.344168,25.575576 c 0.481224,0 1.0226,0.14036 1.62413,0.501276 l 2.085302,1.24316 c -0.0802,0.260664 -0.1203,0.521326 -0.1203,0.80204 0,0.300764 0.0401,0.60153 0.14036,0.882244 L 80.848,30.32766 c -0.501274,0.280714 -1.00255,0.40102 -1.463722,0.40102 -1.443672,0 -2.566526,-1.162956 -2.566526,-2.566526 0.02004,-1.323366 1.102804,-2.586578 2.526424,-2.586578 z"
             id="path3548-31-3" /><path
             inkscape:connector-curvature="0"
             style="fill:#f4f4f4;stroke-width:0.20051"
             d="m 88.006194,30.147202 2.105354,1.203058 c 1.062702,0.621582 1.563976,1.40357 1.563976,2.386068 0,1.483774 -1.162956,2.586578 -2.566526,2.586578 -1.724384,0 -2.586578,-1.323366 -2.586578,-2.947496 l 0.0401,-2.386066 c 0.561428,-0.1604 1.062704,-0.441122 1.443674,-0.842142 z"
             id="path3509-83-1" /></g><g
           transform="matrix(0.42384263,0,0,0.42384263,183.36461,175.10749)"
           id="g3567-6-9"><path
             inkscape:connector-curvature="0"
             style="fill:#ffb700;stroke-width:0.20051"
             d="m 85.88079,26.03675 c 1.142906,0 2.085302,0.942396 2.085302,2.085302 0,1.142906 -0.942396,2.085302 -2.085302,2.085302 -1.142906,0 -2.085302,-0.942396 -2.085302,-2.085302 0,-1.162958 0.922344,-2.085302 2.085302,-2.085302 z"
             id="path3558-0-4" /><path
             inkscape:connector-curvature="0"
             style="fill:#f4f4f4;stroke-width:0.20051"
             d="m 81.469572,31.410414 2.285812,-1.283264 c 0.40102,0.421072 0.922346,0.721836 1.503826,0.842142 l -0.0401,2.366016 c -0.02004,1.543926 -0.902296,2.927444 -2.62668,2.927444 -1.42362,0 -2.586578,-1.122854 -2.586578,-2.566526 0,-1.22311 0.822092,-1.944946 1.46372,-2.285812 z"
             id="path3556-8-7" /><path
             inkscape:connector-curvature="0"
             style="fill:#f4f4f4;stroke-width:0.20051"
             d="m 86.482318,25.25476 0.02006,-2.486322 c 0.02004,-1.563976 0.922346,-2.827188 2.586578,-2.827188 1.44367,0 2.566526,1.183008 2.566526,2.566526 0,1.263212 -0.681734,1.884792 -1.784538,2.546476 l -1.82464,1.082752 c -0.40102,-0.441122 -0.942396,-0.761938 -1.563978,-0.882244 z"
             id="path3554-9-8" /><path
             inkscape:connector-curvature="0"
             style="fill:#f4f4f4;stroke-width:0.20051"
             d="m 82.63253,19.981352 c 1.804588,0 2.62668,1.403568 2.62668,3.04775 l -0.02006,2.225658 c -0.62158,0.14036 -1.162956,0.461174 -1.563976,0.922346 l -1.884786,-1.102804 c -1.122854,-0.681734 -1.724384,-1.363466 -1.724384,-2.526424 0,-1.463722 1.122854,-2.566526 2.566526,-2.566526 z"
             id="path3552-2-4" /><path
             inkscape:connector-curvature="0"
             style="fill:#f4f4f4;stroke-width:0.20051"
             d="m 88.667876,27.219758 2.325914,-1.243162 c 0.501276,-0.260662 1.00255,-0.40102 1.443672,-0.40102 1.383518,0 2.486322,1.243162 2.486322,2.606628 0,1.303314 -1.102804,2.566528 -2.466272,2.566528 -0.501274,0 -1.102804,-0.1604 -1.704332,-0.521326 l -2.105354,-1.22311 c 0.0802,-0.280714 0.14036,-0.58148 0.14036,-0.902294 0.02004,-0.300766 -0.02004,-0.60153 -0.1203,-0.882244 z"
             id="path3550-2-5" /><path
             inkscape:connector-curvature="0"
             style="fill:#f4f4f4;stroke-width:0.20051"
             d="m 79.344168,25.575576 c 0.481224,0 1.0226,0.14036 1.62413,0.501276 l 2.085302,1.24316 c -0.0802,0.260664 -0.1203,0.521326 -0.1203,0.80204 0,0.300764 0.0401,0.60153 0.14036,0.882244 L 80.848,30.32766 c -0.501274,0.280714 -1.00255,0.40102 -1.463722,0.40102 -1.443672,0 -2.566526,-1.162956 -2.566526,-2.566526 0.02004,-1.323366 1.102804,-2.586578 2.526424,-2.586578 z"
             id="path3548-31-0" /><path
             inkscape:connector-curvature="0"
             style="fill:#f4f4f4;stroke-width:0.20051"
             d="m 88.006194,30.147202 2.105354,1.203058 c 1.062702,0.621582 1.563976,1.40357 1.563976,2.386068 0,1.483774 -1.162956,2.586578 -2.566526,2.586578 -1.724384,0 -2.586578,-1.323366 -2.586578,-2.947496 l 0.0401,-2.386066 c 0.561428,-0.1604 1.062704,-0.441122 1.443674,-0.842142 z"
             id="path3509-83-3" /></g><g
           transform="matrix(0.42384263,0,0,0.42384263,184.00157,224.4917)"
           id="g3567-6-6"><path
             inkscape:connector-curvature="0"
             style="fill:#ffb700;stroke-width:0.20051"
             d="m 85.88079,26.03675 c 1.142906,0 2.085302,0.942396 2.085302,2.085302 0,1.142906 -0.942396,2.085302 -2.085302,2.085302 -1.142906,0 -2.085302,-0.942396 -2.085302,-2.085302 0,-1.162958 0.922344,-2.085302 2.085302,-2.085302 z"
             id="path3558-0-1" /><path
             inkscape:connector-curvature="0"
             style="fill:#f4f4f4;stroke-width:0.20051"
             d="m 81.469572,31.410414 2.285812,-1.283264 c 0.40102,0.421072 0.922346,0.721836 1.503826,0.842142 l -0.0401,2.366016 c -0.02004,1.543926 -0.902296,2.927444 -2.62668,2.927444 -1.42362,0 -2.586578,-1.122854 -2.586578,-2.566526 0,-1.22311 0.822092,-1.944946 1.46372,-2.285812 z"
             id="path3556-8-0" /><path
             inkscape:connector-curvature="0"
             style="fill:#f4f4f4;stroke-width:0.20051"
             d="m 86.482318,25.25476 0.02006,-2.486322 c 0.02004,-1.563976 0.922346,-2.827188 2.586578,-2.827188 1.44367,0 2.566526,1.183008 2.566526,2.566526 0,1.263212 -0.681734,1.884792 -1.784538,2.546476 l -1.82464,1.082752 c -0.40102,-0.441122 -0.942396,-0.761938 -1.563978,-0.882244 z"
             id="path3554-9-6" /><path
             inkscape:connector-curvature="0"
             style="fill:#f4f4f4;stroke-width:0.20051"
             d="m 82.63253,19.981352 c 1.804588,0 2.62668,1.403568 2.62668,3.04775 l -0.02006,2.225658 c -0.62158,0.14036 -1.162956,0.461174 -1.563976,0.922346 l -1.884786,-1.102804 c -1.122854,-0.681734 -1.724384,-1.363466 -1.724384,-2.526424 0,-1.463722 1.122854,-2.566526 2.566526,-2.566526 z"
             id="path3552-2-3" /><path
             inkscape:connector-curvature="0"
             style="fill:#f4f4f4;stroke-width:0.20051"
             d="m 88.667876,27.219758 2.325914,-1.243162 c 0.501276,-0.260662 1.00255,-0.40102 1.443672,-0.40102 1.383518,0 2.486322,1.243162 2.486322,2.606628 0,1.303314 -1.102804,2.566528 -2.466272,2.566528 -0.501274,0 -1.102804,-0.1604 -1.704332,-0.521326 l -2.105354,-1.22311 c 0.0802,-0.280714 0.14036,-0.58148 0.14036,-0.902294 0.02004,-0.300766 -0.02004,-0.60153 -0.1203,-0.882244 z"
             id="path3550-2-2" /><path
             inkscape:connector-curvature="0"
             style="fill:#f4f4f4;stroke-width:0.20051"
             d="m 79.344168,25.575576 c 0.481224,0 1.0226,0.14036 1.62413,0.501276 l 2.085302,1.24316 c -0.0802,0.260664 -0.1203,0.521326 -0.1203,0.80204 0,0.300764 0.0401,0.60153 0.14036,0.882244 L 80.848,30.32766 c -0.501274,0.280714 -1.00255,0.40102 -1.463722,0.40102 -1.443672,0 -2.566526,-1.162956 -2.566526,-2.566526 0.02004,-1.323366 1.102804,-2.586578 2.526424,-2.586578 z"
             id="path3548-31-06" /><path
             inkscape:connector-curvature="0"
             style="fill:#f4f4f4;stroke-width:0.20051"
             d="m 88.006194,30.147202 2.105354,1.203058 c 1.062702,0.621582 1.563976,1.40357 1.563976,2.386068 0,1.483774 -1.162956,2.586578 -2.566526,2.586578 -1.724384,0 -2.586578,-1.323366 -2.586578,-2.947496 l 0.0401,-2.386066 c 0.561428,-0.1604 1.062704,-0.441122 1.443674,-0.842142 z"
             id="path3509-83-15" /></g><g
           transform="matrix(0.42384263,0,0,0.42384263,168.67017,192.51066)"
           id="g3567-6-5"><path
             inkscape:connector-curvature="0"
             style="fill:#ffb700;stroke-width:0.20051"
             d="m 85.88079,26.03675 c 1.142906,0 2.085302,0.942396 2.085302,2.085302 0,1.142906 -0.942396,2.085302 -2.085302,2.085302 -1.142906,0 -2.085302,-0.942396 -2.085302,-2.085302 0,-1.162958 0.922344,-2.085302 2.085302,-2.085302 z"
             id="path3558-0-47" /><path
             inkscape:connector-curvature="0"
             style="fill:#f4f4f4;stroke-width:0.20051"
             d="m 81.469572,31.410414 2.285812,-1.283264 c 0.40102,0.421072 0.922346,0.721836 1.503826,0.842142 l -0.0401,2.366016 c -0.02004,1.543926 -0.902296,2.927444 -2.62668,2.927444 -1.42362,0 -2.586578,-1.122854 -2.586578,-2.566526 0,-1.22311 0.822092,-1.944946 1.46372,-2.285812 z"
             id="path3556-8-65" /><path
             inkscape:connector-curvature="0"
             style="fill:#f4f4f4;stroke-width:0.20051"
             d="m 86.482318,25.25476 0.02006,-2.486322 c 0.02004,-1.563976 0.922346,-2.827188 2.586578,-2.827188 1.44367,0 2.566526,1.183008 2.566526,2.566526 0,1.263212 -0.681734,1.884792 -1.784538,2.546476 l -1.82464,1.082752 c -0.40102,-0.441122 -0.942396,-0.761938 -1.563978,-0.882244 z"
             id="path3554-9-69" /><path
             inkscape:connector-curvature="0"
             style="fill:#f4f4f4;stroke-width:0.20051"
             d="m 82.63253,19.981352 c 1.804588,0 2.62668,1.403568 2.62668,3.04775 l -0.02006,2.225658 c -0.62158,0.14036 -1.162956,0.461174 -1.563976,0.922346 l -1.884786,-1.102804 c -1.122854,-0.681734 -1.724384,-1.363466 -1.724384,-2.526424 0,-1.463722 1.122854,-2.566526 2.566526,-2.566526 z"
             id="path3552-2-37" /><path
             inkscape:connector-curvature="0"
             style="fill:#f4f4f4;stroke-width:0.20051"
             d="m 88.667876,27.219758 2.325914,-1.243162 c 0.501276,-0.260662 1.00255,-0.40102 1.443672,-0.40102 1.383518,0 2.486322,1.243162 2.486322,2.606628 0,1.303314 -1.102804,2.566528 -2.466272,2.566528 -0.501274,0 -1.102804,-0.1604 -1.704332,-0.521326 l -2.105354,-1.22311 c 0.0802,-0.280714 0.14036,-0.58148 0.14036,-0.902294 0.02004,-0.300766 -0.02004,-0.60153 -0.1203,-0.882244 z"
             id="path3550-2-4" /><path
             inkscape:connector-curvature="0"
             style="fill:#f4f4f4;stroke-width:0.20051"
             d="m 79.344168,25.575576 c 0.481224,0 1.0226,0.14036 1.62413,0.501276 l 2.085302,1.24316 c -0.0802,0.260664 -0.1203,0.521326 -0.1203,0.80204 0,0.300764 0.0401,0.60153 0.14036,0.882244 L 80.848,30.32766 c -0.501274,0.280714 -1.00255,0.40102 -1.463722,0.40102 -1.443672,0 -2.566526,-1.162956 -2.566526,-2.566526 0.02004,-1.323366 1.102804,-2.586578 2.526424,-2.586578 z"
             id="path3548-31-5" /><path
             inkscape:connector-curvature="0"
             style="fill:#f4f4f4;stroke-width:0.20051"
             d="m 88.006194,30.147202 2.105354,1.203058 c 1.062702,0.621582 1.563976,1.40357 1.563976,2.386068 0,1.483774 -1.162956,2.586578 -2.566526,2.586578 -1.724384,0 -2.586578,-1.323366 -2.586578,-2.947496 l 0.0401,-2.386066 c 0.561428,-0.1604 1.062704,-0.441122 1.443674,-0.842142 z"
             id="path3509-83-2" /></g><g
           transform="matrix(0.42384263,0,0,0.42384263,164.83312,217.64365)"
           id="g3567-6-54"><path
             inkscape:connector-curvature="0"
             style="fill:#ffb700;stroke-width:0.20051"
             d="m 85.88079,26.03675 c 1.142906,0 2.085302,0.942396 2.085302,2.085302 0,1.142906 -0.942396,2.085302 -2.085302,2.085302 -1.142906,0 -2.085302,-0.942396 -2.085302,-2.085302 0,-1.162958 0.922344,-2.085302 2.085302,-2.085302 z"
             id="path3558-0-7" /><path
             inkscape:connector-curvature="0"
             style="fill:#f4f4f4;stroke-width:0.20051"
             d="m 81.469572,31.410414 2.285812,-1.283264 c 0.40102,0.421072 0.922346,0.721836 1.503826,0.842142 l -0.0401,2.366016 c -0.02004,1.543926 -0.902296,2.927444 -2.62668,2.927444 -1.42362,0 -2.586578,-1.122854 -2.586578,-2.566526 0,-1.22311 0.822092,-1.944946 1.46372,-2.285812 z"
             id="path3556-8-4" /><path
             inkscape:connector-curvature="0"
             style="fill:#f4f4f4;stroke-width:0.20051"
             d="m 86.482318,25.25476 0.02006,-2.486322 c 0.02004,-1.563976 0.922346,-2.827188 2.586578,-2.827188 1.44367,0 2.566526,1.183008 2.566526,2.566526 0,1.263212 -0.681734,1.884792 -1.784538,2.546476 l -1.82464,1.082752 c -0.40102,-0.441122 -0.942396,-0.761938 -1.563978,-0.882244 z"
             id="path3554-9-4" /><path
             inkscape:connector-curvature="0"
             style="fill:#f4f4f4;stroke-width:0.20051"
             d="m 82.63253,19.981352 c 1.804588,0 2.62668,1.403568 2.62668,3.04775 l -0.02006,2.225658 c -0.62158,0.14036 -1.162956,0.461174 -1.563976,0.922346 l -1.884786,-1.102804 c -1.122854,-0.681734 -1.724384,-1.363466 -1.724384,-2.526424 0,-1.463722 1.122854,-2.566526 2.566526,-2.566526 z"
             id="path3552-2-30" /><path
             inkscape:connector-curvature="0"
             style="fill:#f4f4f4;stroke-width:0.20051"
             d="m 88.667876,27.219758 2.325914,-1.243162 c 0.501276,-0.260662 1.00255,-0.40102 1.443672,-0.40102 1.383518,0 2.486322,1.243162 2.486322,2.606628 0,1.303314 -1.102804,2.566528 -2.466272,2.566528 -0.501274,0 -1.102804,-0.1604 -1.704332,-0.521326 l -2.105354,-1.22311 c 0.0802,-0.280714 0.14036,-0.58148 0.14036,-0.902294 0.02004,-0.300766 -0.02004,-0.60153 -0.1203,-0.882244 z"
             id="path3550-2-7" /><path
             inkscape:connector-curvature="0"
             style="fill:#f4f4f4;stroke-width:0.20051"
             d="m 79.344168,25.575576 c 0.481224,0 1.0226,0.14036 1.62413,0.501276 l 2.085302,1.24316 c -0.0802,0.260664 -0.1203,0.521326 -0.1203,0.80204 0,0.300764 0.0401,0.60153 0.14036,0.882244 L 80.848,30.32766 c -0.501274,0.280714 -1.00255,0.40102 -1.463722,0.40102 -1.443672,0 -2.566526,-1.162956 -2.566526,-2.566526 0.02004,-1.323366 1.102804,-2.586578 2.526424,-2.586578 z"
             id="path3548-31-8" /><path
             inkscape:connector-curvature="0"
             style="fill:#f4f4f4;stroke-width:0.20051"
             d="m 88.006194,30.147202 2.105354,1.203058 c 1.062702,0.621582 1.563976,1.40357 1.563976,2.386068 0,1.483774 -1.162956,2.586578 -2.566526,2.586578 -1.724384,0 -2.586578,-1.323366 -2.586578,-2.947496 l 0.0401,-2.386066 c 0.561428,-0.1604 1.062704,-0.441122 1.443674,-0.842142 z"
             id="path3509-83-6" /></g><g
           transform="matrix(0.42384263,0,0,0.42384263,187.83862,194.86162)"
           id="g3567-6-54-2"><path
             inkscape:connector-curvature="0"
             style="fill:#ffb700;stroke-width:0.20051"
             d="m 85.88079,26.03675 c 1.142906,0 2.085302,0.942396 2.085302,2.085302 0,1.142906 -0.942396,2.085302 -2.085302,2.085302 -1.142906,0 -2.085302,-0.942396 -2.085302,-2.085302 0,-1.162958 0.922344,-2.085302 2.085302,-2.085302 z"
             id="path3558-0-7-2" /><path
             inkscape:connector-curvature="0"
             style="fill:#f4f4f4;stroke-width:0.20051"
             d="m 81.469572,31.410414 2.285812,-1.283264 c 0.40102,0.421072 0.922346,0.721836 1.503826,0.842142 l -0.0401,2.366016 c -0.02004,1.543926 -0.902296,2.927444 -2.62668,2.927444 -1.42362,0 -2.586578,-1.122854 -2.586578,-2.566526 0,-1.22311 0.822092,-1.944946 1.46372,-2.285812 z"
             id="path3556-8-4-6" /><path
             inkscape:connector-curvature="0"
             style="fill:#f4f4f4;stroke-width:0.20051"
             d="m 86.482318,25.25476 0.02006,-2.486322 c 0.02004,-1.563976 0.922346,-2.827188 2.586578,-2.827188 1.44367,0 2.566526,1.183008 2.566526,2.566526 0,1.263212 -0.681734,1.884792 -1.784538,2.546476 l -1.82464,1.082752 c -0.40102,-0.441122 -0.942396,-0.761938 -1.563978,-0.882244 z"
             id="path3554-9-4-1" /><path
             inkscape:connector-curvature="0"
             style="fill:#f4f4f4;stroke-width:0.20051"
             d="m 82.63253,19.981352 c 1.804588,0 2.62668,1.403568 2.62668,3.04775 l -0.02006,2.225658 c -0.62158,0.14036 -1.162956,0.461174 -1.563976,0.922346 l -1.884786,-1.102804 c -1.122854,-0.681734 -1.724384,-1.363466 -1.724384,-2.526424 0,-1.463722 1.122854,-2.566526 2.566526,-2.566526 z"
             id="path3552-2-30-0" /><path
             inkscape:connector-curvature="0"
             style="fill:#f4f4f4;stroke-width:0.20051"
             d="m 88.667876,27.219758 2.325914,-1.243162 c 0.501276,-0.260662 1.00255,-0.40102 1.443672,-0.40102 1.383518,0 2.486322,1.243162 2.486322,2.606628 0,1.303314 -1.102804,2.566528 -2.466272,2.566528 -0.501274,0 -1.102804,-0.1604 -1.704332,-0.521326 l -2.105354,-1.22311 c 0.0802,-0.280714 0.14036,-0.58148 0.14036,-0.902294 0.02004,-0.300766 -0.02004,-0.60153 -0.1203,-0.882244 z"
             id="path3550-2-7-6" /><path
             inkscape:connector-curvature="0"
             style="fill:#f4f4f4;stroke-width:0.20051"
             d="m 79.344168,25.575576 c 0.481224,0 1.0226,0.14036 1.62413,0.501276 l 2.085302,1.24316 c -0.0802,0.260664 -0.1203,0.521326 -0.1203,0.80204 0,0.300764 0.0401,0.60153 0.14036,0.882244 L 80.848,30.32766 c -0.501274,0.280714 -1.00255,0.40102 -1.463722,0.40102 -1.443672,0 -2.566526,-1.162956 -2.566526,-2.566526 0.02004,-1.323366 1.102804,-2.586578 2.526424,-2.586578 z"
             id="path3548-31-8-1" /><path
             inkscape:connector-curvature="0"
             style="fill:#f4f4f4;stroke-width:0.20051"
             d="m 88.006194,30.147202 2.105354,1.203058 c 1.062702,0.621582 1.563976,1.40357 1.563976,2.386068 0,1.483774 -1.162956,2.586578 -2.566526,2.586578 -1.724384,0 -2.586578,-1.323366 -2.586578,-2.947496 l 0.0401,-2.386066 c 0.561428,-0.1604 1.062704,-0.441122 1.443674,-0.842142 z"
             id="path3509-83-6-5" /></g><g
           transform="matrix(0.42384263,0,0,0.42384263,188.26235,137.6519)"
           id="g3567-6-8"><path
             inkscape:connector-curvature="0"
             style="fill:#ffb700;stroke-width:0.20051"
             d="m 85.88079,26.03675 c 1.142906,0 2.085302,0.942396 2.085302,2.085302 0,1.142906 -0.942396,2.085302 -2.085302,2.085302 -1.142906,0 -2.085302,-0.942396 -2.085302,-2.085302 0,-1.162958 0.922344,-2.085302 2.085302,-2.085302 z"
             id="path3558-0-8" /><path
             inkscape:connector-curvature="0"
             style="fill:#f4f4f4;stroke-width:0.20051"
             d="m 81.469572,31.410414 2.285812,-1.283264 c 0.40102,0.421072 0.922346,0.721836 1.503826,0.842142 l -0.0401,2.366016 c -0.02004,1.543926 -0.902296,2.927444 -2.62668,2.927444 -1.42362,0 -2.586578,-1.122854 -2.586578,-2.566526 0,-1.22311 0.822092,-1.944946 1.46372,-2.285812 z"
             id="path3556-8-43" /><path
             inkscape:connector-curvature="0"
             style="fill:#f4f4f4;stroke-width:0.20051"
             d="m 86.482318,25.25476 0.02006,-2.486322 c 0.02004,-1.563976 0.922346,-2.827188 2.586578,-2.827188 1.44367,0 2.566526,1.183008 2.566526,2.566526 0,1.263212 -0.681734,1.884792 -1.784538,2.546476 l -1.82464,1.082752 c -0.40102,-0.441122 -0.942396,-0.761938 -1.563978,-0.882244 z"
             id="path3554-9-14" /><path
             inkscape:connector-curvature="0"
             style="fill:#f4f4f4;stroke-width:0.20051"
             d="m 82.63253,19.981352 c 1.804588,0 2.62668,1.403568 2.62668,3.04775 l -0.02006,2.225658 c -0.62158,0.14036 -1.162956,0.461174 -1.563976,0.922346 l -1.884786,-1.102804 c -1.122854,-0.681734 -1.724384,-1.363466 -1.724384,-2.526424 0,-1.463722 1.122854,-2.566526 2.566526,-2.566526 z"
             id="path3552-2-9" /><path
             inkscape:connector-curvature="0"
             style="fill:#f4f4f4;stroke-width:0.20051"
             d="m 88.667876,27.219758 2.325914,-1.243162 c 0.501276,-0.260662 1.00255,-0.40102 1.443672,-0.40102 1.383518,0 2.486322,1.243162 2.486322,2.606628 0,1.303314 -1.102804,2.566528 -2.466272,2.566528 -0.501274,0 -1.102804,-0.1604 -1.704332,-0.521326 l -2.105354,-1.22311 c 0.0802,-0.280714 0.14036,-0.58148 0.14036,-0.902294 0.02004,-0.300766 -0.02004,-0.60153 -0.1203,-0.882244 z"
             id="path3550-2-20" /><path
             inkscape:connector-curvature="0"
             style="fill:#f4f4f4;stroke-width:0.20051"
             d="m 79.344168,25.575576 c 0.481224,0 1.0226,0.14036 1.62413,0.501276 l 2.085302,1.24316 c -0.0802,0.260664 -0.1203,0.521326 -0.1203,0.80204 0,0.300764 0.0401,0.60153 0.14036,0.882244 L 80.848,30.32766 c -0.501274,0.280714 -1.00255,0.40102 -1.463722,0.40102 -1.443672,0 -2.566526,-1.162956 -2.566526,-2.566526 0.02004,-1.323366 1.102804,-2.586578 2.526424,-2.586578 z"
             id="path3548-31-6" /><path
             inkscape:connector-curvature="0"
             style="fill:#f4f4f4;stroke-width:0.20051"
             d="m 88.006194,30.147202 2.105354,1.203058 c 1.062702,0.621582 1.563976,1.40357 1.563976,2.386068 0,1.483774 -1.162956,2.586578 -2.566526,2.586578 -1.724384,0 -2.586578,-1.323366 -2.586578,-2.947496 l 0.0401,-2.386066 c 0.561428,-0.1604 1.062704,-0.441122 1.443674,-0.842142 z"
             id="path3509-83-8" /></g><g
           transform="matrix(0.42384263,0,0,0.42384263,169.41421,147.77105)"
           id="g3567-6-92"><path
             inkscape:connector-curvature="0"
             style="fill:#ffb700;stroke-width:0.20051"
             d="m 85.88079,26.03675 c 1.142906,0 2.085302,0.942396 2.085302,2.085302 0,1.142906 -0.942396,2.085302 -2.085302,2.085302 -1.142906,0 -2.085302,-0.942396 -2.085302,-2.085302 0,-1.162958 0.922344,-2.085302 2.085302,-2.085302 z"
             id="path3558-0-6" /><path
             inkscape:connector-curvature="0"
             style="fill:#f4f4f4;stroke-width:0.20051"
             d="m 81.469572,31.410414 2.285812,-1.283264 c 0.40102,0.421072 0.922346,0.721836 1.503826,0.842142 l -0.0401,2.366016 c -0.02004,1.543926 -0.902296,2.927444 -2.62668,2.927444 -1.42362,0 -2.586578,-1.122854 -2.586578,-2.566526 0,-1.22311 0.822092,-1.944946 1.46372,-2.285812 z"
             id="path3556-8-64" /><path
             inkscape:connector-curvature="0"
             style="fill:#f4f4f4;stroke-width:0.20051"
             d="m 86.482318,25.25476 0.02006,-2.486322 c 0.02004,-1.563976 0.922346,-2.827188 2.586578,-2.827188 1.44367,0 2.566526,1.183008 2.566526,2.566526 0,1.263212 -0.681734,1.884792 -1.784538,2.546476 l -1.82464,1.082752 c -0.40102,-0.441122 -0.942396,-0.761938 -1.563978,-0.882244 z"
             id="path3554-9-9" /><path
             inkscape:connector-curvature="0"
             style="fill:#f4f4f4;stroke-width:0.20051"
             d="m 82.63253,19.981352 c 1.804588,0 2.62668,1.403568 2.62668,3.04775 l -0.02006,2.225658 c -0.62158,0.14036 -1.162956,0.461174 -1.563976,0.922346 l -1.884786,-1.102804 c -1.122854,-0.681734 -1.724384,-1.363466 -1.724384,-2.526424 0,-1.463722 1.122854,-2.566526 2.566526,-2.566526 z"
             id="path3552-2-5" /><path
             inkscape:connector-curvature="0"
             style="fill:#f4f4f4;stroke-width:0.20051"
             d="m 88.667876,27.219758 2.325914,-1.243162 c 0.501276,-0.260662 1.00255,-0.40102 1.443672,-0.40102 1.383518,0 2.486322,1.243162 2.486322,2.606628 0,1.303314 -1.102804,2.566528 -2.466272,2.566528 -0.501274,0 -1.102804,-0.1604 -1.704332,-0.521326 l -2.105354,-1.22311 c 0.0802,-0.280714 0.14036,-0.58148 0.14036,-0.902294 0.02004,-0.300766 -0.02004,-0.60153 -0.1203,-0.882244 z"
             id="path3550-2-0" /><path
             inkscape:connector-curvature="0"
             style="fill:#f4f4f4;stroke-width:0.20051"
             d="m 79.344168,25.575576 c 0.481224,0 1.0226,0.14036 1.62413,0.501276 l 2.085302,1.24316 c -0.0802,0.260664 -0.1203,0.521326 -0.1203,0.80204 0,0.300764 0.0401,0.60153 0.14036,0.882244 L 80.848,30.32766 c -0.501274,0.280714 -1.00255,0.40102 -1.463722,0.40102 -1.443672,0 -2.566526,-1.162956 -2.566526,-2.566526 0.02004,-1.323366 1.102804,-2.586578 2.526424,-2.586578 z"
             id="path3548-31-4" /><path
             inkscape:connector-curvature="0"
             style="fill:#f4f4f4;stroke-width:0.20051"
             d="m 88.006194,30.147202 2.105354,1.203058 c 1.062702,0.621582 1.563976,1.40357 1.563976,2.386068 0,1.483774 -1.162956,2.586578 -2.566526,2.586578 -1.724384,0 -2.586578,-1.323366 -2.586578,-2.947496 l 0.0401,-2.386066 c 0.561428,-0.1604 1.062704,-0.441122 1.443674,-0.842142 z"
             id="path3509-83-87" /></g></g><path
         style="fill:none;stroke:#000000;stroke-width:13.6598;stroke-linecap:round;stroke-linejoin:miter;stroke-dasharray:none;stroke-opacity:1"
         d="m 326.54193,114.77112 c 0.99226,19.95683 12.14676,21.75472 21.62001,21.57457"
         id="path4060-2"
         sodipodi:nodetypes="cc"
         inkscape:transform-center-x="9.8790659"
         inkscape:transform-center-y="8.1546168" /><g
         id="g10528"
         transform="matrix(1.6520822,-0.48186169,0.48186169,1.6520822,46.271254,-42.692869)"><path
           inkscape:connector-curvature="0"
           d="m 144.67682,104.93057 c -0.64955,-0.87633 -1.61348,-1.52334 -2.77004,-1.7423 -2.43745,-0.46143 -4.78763,1.14056 -5.24905,3.57802 -0.29427,1.55435 0.2529,3.0709 1.3187,4.08703 0.4992,-1.25668 1.25571,-2.40858 2.24674,-3.38687 1.25701,-1.24124 2.78774,-2.10352 4.45365,-2.53588 z"
           id="path4117-5-7"
           style="fill:#000000;fill-opacity:1;stroke-width:0.399282" /><g
           style="fill:#000000;fill-opacity:1"
           id="g4218-4-2"
           transform="matrix(2.6279885,0,0,2.6279885,-132.77864,71.99136)"><circle
             r="3.4184093"
             cy="16.179581"
             cx="106.52979"
             id="path6312-1-7"
             style="opacity:1;fill:#000000;fill-opacity:1;stroke:none;stroke-width:0.379823;stroke-linecap:butt;stroke-linejoin:bevel;stroke-miterlimit:4;stroke-dasharray:none;stroke-dashoffset:0;stroke-opacity:1;paint-order:markers stroke fill" /></g></g></g><g
       id="wiel"
       transform="matrix(1.7209202,0,0,1.7209202,-187.91145,-51.35196)"><circle
         style="fill:#333333;stroke-width:0.461236;stroke-linecap:round;stroke-linejoin:round;stop-color:#000000"
         id="path20858"
         cx="282.52328"
         cy="169.02165"
         r="19.651796" /><circle
         style="fill:#357edd;fill-opacity:1;stroke-width:0.304164;stroke-linecap:round;stroke-linejoin:round;stop-color:#000000"
         id="path20858-2"
         cx="282.52328"
         cy="169.02165"
         r="12.95945" /><circle
         style="fill:#357edd;fill-opacity:1;stroke:#e6e6e6;stroke-width:0.461236;stroke-linecap:round;stroke-linejoin:round;stroke-dasharray:none;stroke-opacity:1;stop-color:#000000"
         id="path20858-2-4"
         cx="282.52328"
         cy="169.02165"
         r="4.3226061" /><path
         style="fill:none;stroke:#666666;stroke-width:0.461236;stroke-linecap:round;stroke-linejoin:miter;stroke-dasharray:none;stroke-opacity:1"
         d="m 288.67309,169.02166 h 4.34453"
         id="path21116-8-9"
         sodipodi:nodetypes="cc"
         inkscape:transform-center-x="-14.321618"
         inkscape:transform-center-y="1.3530832e-05"
         inkscape:tile-cx="288.92521"
         inkscape:tile-cy="143.01919"
         inkscape:tile-w="0.79375034"
         inkscape:tile-h="8.2703569"
         inkscape:tile-x0="288.52834"
         inkscape:tile-y0="124.56239" /><g
         id="g24713"
         style="stroke:#ececec"><path
           style="fill:none;stroke:#ececec;stroke-width:0.461236;stroke-linecap:round;stroke-linejoin:miter;stroke-dasharray:none;stroke-opacity:1"
           d="m 282.52329,162.87185 v -4.34454"
           id="path21116"
           sodipodi:nodetypes="cc"
           inkscape:transform-center-x="-8.755854e-06"
           inkscape:transform-center-y="-14.321622"
           inkscape:tile-cx="288.92521"
           inkscape:tile-cy="143.01919"
           inkscape:tile-w="0.79375034"
           inkscape:tile-h="8.2703569"
           inkscape:tile-x0="288.52834"
           inkscape:tile-y0="124.56239" /><path
           style="fill:none;stroke:#ececec;stroke-width:0.461236;stroke-linecap:round;stroke-linejoin:miter;stroke-dasharray:none;stroke-opacity:1"
           d="m 286.87186,164.67309 3.07205,-3.07205"
           id="path21116-8"
           sodipodi:nodetypes="cc"
           inkscape:transform-center-x="-10.126927"
           inkscape:transform-center-y="-10.126905"
           inkscape:tile-cx="288.92521"
           inkscape:tile-cy="143.01919"
           inkscape:tile-w="0.79375034"
           inkscape:tile-h="8.2703569"
           inkscape:tile-x0="288.52834"
           inkscape:tile-y0="124.56239" /><path
           style="fill:none;stroke:#ececec;stroke-width:0.461236;stroke-linecap:round;stroke-linejoin:miter;stroke-dasharray:none;stroke-opacity:1"
           d="m 288.67309,169.02166 h 4.34453"
           id="path21116-8-9-2"
           sodipodi:nodetypes="cc"
           inkscape:transform-center-x="-14.321618"
           inkscape:transform-center-y="1.3530832e-05"
           inkscape:tile-cx="288.92521"
           inkscape:tile-cy="143.01919"
           inkscape:tile-w="0.79375034"
           inkscape:tile-h="8.2703569"
           inkscape:tile-x0="288.52834"
           inkscape:tile-y0="124.56239" /><path
           style="fill:none;stroke:#ececec;stroke-width:0.461236;stroke-linecap:round;stroke-linejoin:miter;stroke-dasharray:none;stroke-opacity:1"
           d="m 286.87185,173.37022 3.07205,3.07206"
           id="path21116-6"
           sodipodi:nodetypes="cc"
           inkscape:transform-center-x="-10.12691"
           inkscape:transform-center-y="10.126924"
           inkscape:tile-cx="288.92521"
           inkscape:tile-cy="143.01919"
           inkscape:tile-w="0.79375034"
           inkscape:tile-h="8.2703569"
           inkscape:tile-x0="288.52834"
           inkscape:tile-y0="124.56239" /><path
           style="fill:none;stroke:#ececec;stroke-width:0.461236;stroke-linecap:round;stroke-linejoin:miter;stroke-dasharray:none;stroke-opacity:1"
           d="m 282.52328,175.17146 v 4.34453"
           id="path21116-8-6"
           sodipodi:nodetypes="cc"
           inkscape:transform-center-x="8.0907535e-06"
           inkscape:transform-center-y="14.321624"
           inkscape:tile-cx="288.92521"
           inkscape:tile-cy="143.01919"
           inkscape:tile-w="0.79375034"
           inkscape:tile-h="8.2703569"
           inkscape:tile-x0="288.52834"
           inkscape:tile-y0="124.56239" /><path
           style="fill:none;stroke:#ececec;stroke-width:0.461236;stroke-linecap:round;stroke-linejoin:miter;stroke-dasharray:none;stroke-opacity:1"
           d="m 278.17471,173.37022 -3.07205,3.07204"
           id="path21116-8-9-2-4"
           sodipodi:nodetypes="cc"
           inkscape:transform-center-x="10.126926"
           inkscape:transform-center-y="10.126906"
           inkscape:tile-cx="288.92521"
           inkscape:tile-cy="143.01919"
           inkscape:tile-w="0.79375034"
           inkscape:tile-h="8.2703569"
           inkscape:tile-x0="288.52834"
           inkscape:tile-y0="124.56239" /><path
           style="fill:none;stroke:#ececec;stroke-width:0.461236;stroke-linecap:round;stroke-linejoin:miter;stroke-dasharray:none;stroke-opacity:1"
           d="m 276.37348,169.02165 -4.34454,-1e-5"
           id="path21116-6-9"
           sodipodi:nodetypes="cc"
           inkscape:transform-center-x="14.321627"
           inkscape:transform-center-y="-1.1740034e-05"
           inkscape:tile-cx="288.92521"
           inkscape:tile-cy="143.01919"
           inkscape:tile-w="0.79375034"
           inkscape:tile-h="8.2703569"
           inkscape:tile-x0="288.52834"
           inkscape:tile-y0="124.56239" /><path
           style="fill:none;stroke:#ececec;stroke-width:0.461236;stroke-linecap:round;stroke-linejoin:miter;stroke-dasharray:none;stroke-opacity:1"
           d="m 278.17472,164.67308 -3.07205,-3.07205"
           id="path21116-8-6-5"
           sodipodi:nodetypes="cc"
           inkscape:transform-center-x="10.12691"
           inkscape:transform-center-y="-10.126921"
           inkscape:tile-cx="288.92521"
           inkscape:tile-cy="143.01919"
           inkscape:tile-w="0.79375034"
           inkscape:tile-h="8.2703569"
           inkscape:tile-x0="288.52834"
           inkscape:tile-y0="124.56239" /></g><g
         transform="matrix(0.24628837,0,0,0.24628837,261.37431,162.09305)"
         id="g3567-6-9-8"><path
           inkscape:connector-curvature="0"
           style="fill:#ffb700;stroke-width:0.20051"
           d="m 85.88079,26.03675 c 1.142906,0 2.085302,0.942396 2.085302,2.085302 0,1.142906 -0.942396,2.085302 -2.085302,2.085302 -1.142906,0 -2.085302,-0.942396 -2.085302,-2.085302 0,-1.162958 0.922344,-2.085302 2.085302,-2.085302 z"
           id="path3558-0-4-7" /><path
           inkscape:connector-curvature="0"
           style="fill:#f4f4f4;stroke-width:0.20051"
           d="m 81.469572,31.410414 2.285812,-1.283264 c 0.40102,0.421072 0.922346,0.721836 1.503826,0.842142 l -0.0401,2.366016 c -0.02004,1.543926 -0.902296,2.927444 -2.62668,2.927444 -1.42362,0 -2.586578,-1.122854 -2.586578,-2.566526 0,-1.22311 0.822092,-1.944946 1.46372,-2.285812 z"
           id="path3556-8-7-1" /><path
           inkscape:connector-curvature="0"
           style="fill:#f4f4f4;stroke-width:0.20051"
           d="m 86.482318,25.25476 0.02006,-2.486322 c 0.02004,-1.563976 0.922346,-2.827188 2.586578,-2.827188 1.44367,0 2.566526,1.183008 2.566526,2.566526 0,1.263212 -0.681734,1.884792 -1.784538,2.546476 l -1.82464,1.082752 c -0.40102,-0.441122 -0.942396,-0.761938 -1.563978,-0.882244 z"
           id="path3554-9-8-7" /><path
           inkscape:connector-curvature="0"
           style="fill:#f4f4f4;stroke-width:0.20051"
           d="m 82.63253,19.981352 c 1.804588,0 2.62668,1.403568 2.62668,3.04775 l -0.02006,2.225658 c -0.62158,0.14036 -1.162956,0.461174 -1.563976,0.922346 l -1.884786,-1.102804 c -1.122854,-0.681734 -1.724384,-1.363466 -1.724384,-2.526424 0,-1.463722 1.122854,-2.566526 2.566526,-2.566526 z"
           id="path3552-2-4-2" /><path
           inkscape:connector-curvature="0"
           style="fill:#f4f4f4;stroke-width:0.20051"
           d="m 88.667876,27.219758 2.325914,-1.243162 c 0.501276,-0.260662 1.00255,-0.40102 1.443672,-0.40102 1.383518,0 2.486322,1.243162 2.486322,2.606628 0,1.303314 -1.102804,2.566528 -2.466272,2.566528 -0.501274,0 -1.102804,-0.1604 -1.704332,-0.521326 l -2.105354,-1.22311 c 0.0802,-0.280714 0.14036,-0.58148 0.14036,-0.902294 0.02004,-0.300766 -0.02004,-0.60153 -0.1203,-0.882244 z"
           id="path3550-2-5-7" /><path
           inkscape:connector-curvature="0"
           style="fill:#f4f4f4;stroke-width:0.20051"
           d="m 79.344168,25.575576 c 0.481224,0 1.0226,0.14036 1.62413,0.501276 l 2.085302,1.24316 c -0.0802,0.260664 -0.1203,0.521326 -0.1203,0.80204 0,0.300764 0.0401,0.60153 0.14036,0.882244 L 80.848,30.32766 c -0.501274,0.280714 -1.00255,0.40102 -1.463722,0.40102 -1.443672,0 -2.566526,-1.162956 -2.566526,-2.566526 0.02004,-1.323366 1.102804,-2.586578 2.526424,-2.586578 z"
           id="path3548-31-0-2" /><path
           inkscape:connector-curvature="0"
           style="fill:#f4f4f4;stroke-width:0.20051"
           d="m 88.006194,30.147202 2.105354,1.203058 c 1.062702,0.621582 1.563976,1.40357 1.563976,2.386068 0,1.483774 -1.162956,2.586578 -2.566526,2.586578 -1.724384,0 -2.586578,-1.323366 -2.586578,-2.947496 l 0.0401,-2.386066 c 0.561428,-0.1604 1.062704,-0.441122 1.443674,-0.842142 z"
           id="path3509-83-3-2" /></g></g><g
       id="motion_blur"><path
         style="fill:none;stroke:#cccccc;stroke-width:1.32292;stroke-linecap:round;stroke-linejoin:miter;stroke-dasharray:none;stroke-opacity:1"
         d="M 254.93798,122.5566 H 147.11236"
         id="path29193" /><path
         style="fill:none;stroke:#cccccc;stroke-width:1.32292;stroke-linecap:round;stroke-linejoin:miter;stroke-dasharray:none;stroke-opacity:1"
         d="m 232.27462,152.58718 -153.262764,0.0562"
         id="path29195" /><path
         style="fill:none;stroke:#cccccc;stroke-width:1.32292;stroke-linecap:round;stroke-linejoin:miter;stroke-dasharray:none;stroke-opacity:1"
         d="M 255.35056,173.60591 H 154.09499"
         id="path29197" /></g></g></svg>
