<?xml version="1.0" encoding="UTF-8" standalone="no"?>
<!-- Created with Inkscape (http://www.inkscape.org/) -->

<svg
   width="1922.0376"
   height="783.55237"
   viewBox="0 0 508.53911 207.3149"
   version="1.1"
   id="svg573"
   inkscape:version="1.2.1 (1:1.2.1+202210291243+9c6d41e410)"
   sodipodi:docname="onderhandeling.svg"
   xml:space="preserve"
   xmlns:inkscape="http://www.inkscape.org/namespaces/inkscape"
   xmlns:sodipodi="http://sodipodi.sourceforge.net/DTD/sodipodi-0.dtd"
   xmlns:xlink="http://www.w3.org/1999/xlink"
   xmlns="http://www.w3.org/2000/svg"
   xmlns:svg="http://www.w3.org/2000/svg"><sodipodi:namedview
     id="namedview575"
     pagecolor="#ffffff"
     bordercolor="#666666"
     borderopacity="1.0"
     inkscape:showpageshadow="2"
     inkscape:pageopacity="0.0"
     inkscape:pagecheckerboard="0"
     inkscape:deskcolor="#d1d1d1"
     inkscape:document-units="mm"
     showgrid="false"
     inkscape:zoom="0.48994683"
     inkscape:cx="960.30828"
     inkscape:cy="245.94505"
     inkscape:window-width="1846"
     inkscape:window-height="1016"
     inkscape:window-x="74"
     inkscape:window-y="27"
     inkscape:window-maximized="1"
     inkscape:current-layer="layer1"
     showguides="true" /><defs
     id="defs570"><pattern
       patternUnits="userSpaceOnUse"
       width="50.260043"
       height="37.694409"
       patternTransform="matrix(0.26458331,0,0,0.26458331,39.526125,62.056557)"
       id="pattern13500"><g
         id="use13498"
         transform="matrix(3.7795279,0,0,3.7795279,-77.89009,-234.54449)"><rect
           id="rect13530"
           y="62.056557"
           x="20.608419"
           height="9.9733095"
           width="13.297967"
           style="fill:none;stroke:none;stroke-width:0.61472619" /><path
           inkscape:connector-curvature="0"
           d="m 30.581893,62.056559 3.324491,4.986654 -3.324491,4.986654 -3.32449,-4.986654 z m -6.648981,10e-7 3.32449,4.986654 -3.32449,4.986654 -3.32449,-4.986654 z"
           style="opacity:1;vector-effect:none;fill:#555555;fill-opacity:1;stroke:none;stroke-width:0.88533551;stroke-linecap:butt;stroke-linejoin:bevel;stroke-miterlimit:4;stroke-dasharray:2.65600656, 2.65600656;stroke-dashoffset:0;stroke-opacity:1;paint-order:markers stroke fill"
           id="path13532" /><path
           inkscape:connector-curvature="0"
           d="m 27.257404,62.05656 3.324489,-10e-7 -3.32449,4.986654 -3.324491,-4.986654 z m -1e-6,4.986654 3.32449,4.986654 -3.324489,-2e-6 -3.324492,2e-6 z"
           style="opacity:1;vector-effect:none;fill:#16502d;fill-opacity:1;stroke:none;stroke-width:0.88533551;stroke-linecap:butt;stroke-linejoin:bevel;stroke-miterlimit:4;stroke-dasharray:2.65600656, 2.65600656;stroke-dashoffset:0;stroke-opacity:1;paint-order:markers stroke fill"
           id="path13534" /><path
           inkscape:connector-curvature="0"
           d="m 33.906385,67.043213 v 4.986653 0 l -3.324491,10e-7 z m -13.297963,1e-6 3.32449,4.986654 -3.324489,-2e-6 z m 10e-7,-4.986654 3.32449,-2e-6 -3.32449,4.986655 z m 13.297962,0 v 0 l -10e-7,4.986653 -3.32449,-4.986655 z"
           style="opacity:1;vector-effect:none;fill:#19a974;fill-opacity:1;stroke:none;stroke-width:0.88533551;stroke-linecap:butt;stroke-linejoin:bevel;stroke-miterlimit:4;stroke-dasharray:2.65600653, 2.65600653;stroke-dashoffset:0;stroke-opacity:1;paint-order:markers stroke fill"
           id="path13536" /><path
           id="path13538"
           style="opacity:1;vector-effect:none;fill:#137752;fill-opacity:1;stroke:#000000;stroke-width:0.21277149;stroke-linecap:round;stroke-linejoin:miter;stroke-miterlimit:4;stroke-dasharray:0.2127715, 0.42554299;stroke-dashoffset:0;stroke-opacity:1"
           d="m 27.257401,71.922222 -6.541749,-9.758016 m 13.083499,9.758016 -6.541748,-9.758017 m 0,9.758017 6.541748,-9.758017 m -13.083499,9.758017 6.54175,-9.758017"
           inkscape:connector-curvature="0"
           sodipodi:nodetypes="cccccccc" /></g></pattern><pattern
       inkscape:collect="always"
       xlink:href="#pattern13500-5"
       id="pattern13509-3"
       patternTransform="matrix(0.07359227,-0.04315335,0.06835065,0.09574659,43.469721,89.509081)" /><pattern
       patternUnits="userSpaceOnUse"
       width="50.260043"
       height="37.694409"
       patternTransform="matrix(0.26458331,0,0,0.26458331,39.526125,62.056557)"
       id="pattern13500-5"><g
         id="use13498-6"
         transform="matrix(3.7795279,0,0,3.7795279,-77.89009,-234.54449)"><rect
           id="rect13530-2"
           y="62.056557"
           x="20.608419"
           height="9.9733095"
           width="13.297967"
           style="fill:none;stroke:none;stroke-width:0.61472619" /><path
           inkscape:connector-curvature="0"
           d="m 30.581893,62.056559 3.324491,4.986654 -3.324491,4.986654 -3.32449,-4.986654 z m -6.648981,10e-7 3.32449,4.986654 -3.32449,4.986654 -3.32449,-4.986654 z"
           style="opacity:1;vector-effect:none;fill:#555555;fill-opacity:1;stroke:none;stroke-width:0.88533551;stroke-linecap:butt;stroke-linejoin:bevel;stroke-miterlimit:4;stroke-dasharray:2.65600656, 2.65600656;stroke-dashoffset:0;stroke-opacity:1;paint-order:markers stroke fill"
           id="path13532-9" /><path
           inkscape:connector-curvature="0"
           d="m 27.257404,62.05656 3.324489,-10e-7 -3.32449,4.986654 -3.324491,-4.986654 z m -1e-6,4.986654 3.32449,4.986654 -3.324489,-2e-6 -3.324492,2e-6 z"
           style="opacity:1;vector-effect:none;fill:#16502d;fill-opacity:1;stroke:none;stroke-width:0.88533551;stroke-linecap:butt;stroke-linejoin:bevel;stroke-miterlimit:4;stroke-dasharray:2.65600656, 2.65600656;stroke-dashoffset:0;stroke-opacity:1;paint-order:markers stroke fill"
           id="path13534-1" /><path
           inkscape:connector-curvature="0"
           d="m 33.906385,67.043213 v 4.986653 0 l -3.324491,10e-7 z m -13.297963,1e-6 3.32449,4.986654 -3.324489,-2e-6 z m 10e-7,-4.986654 3.32449,-2e-6 -3.32449,4.986655 z m 13.297962,0 v 0 l -10e-7,4.986653 -3.32449,-4.986655 z"
           style="opacity:1;vector-effect:none;fill:#19a974;fill-opacity:1;stroke:none;stroke-width:0.88533551;stroke-linecap:butt;stroke-linejoin:bevel;stroke-miterlimit:4;stroke-dasharray:2.65600653, 2.65600653;stroke-dashoffset:0;stroke-opacity:1;paint-order:markers stroke fill"
           id="path13536-2" /><path
           id="path13538-7"
           style="opacity:1;vector-effect:none;fill:#137752;fill-opacity:1;stroke:#000000;stroke-width:0.21277149;stroke-linecap:round;stroke-linejoin:miter;stroke-miterlimit:4;stroke-dasharray:0.2127715, 0.42554299;stroke-dashoffset:0;stroke-opacity:1"
           d="m 27.257401,71.922222 -6.541749,-9.758016 m 13.083499,9.758016 -6.541748,-9.758017 m 0,9.758017 6.541748,-9.758017 m -13.083499,9.758017 6.54175,-9.758017"
           inkscape:connector-curvature="0"
           sodipodi:nodetypes="cccccccc" /></g></pattern><pattern
       patternUnits="userSpaceOnUse"
       width="50.260043"
       height="37.694409"
       patternTransform="matrix(0.26458331,0,0,0.26458331,39.526125,62.056557)"
       id="pattern13500-5-8"><g
         id="use13498-6-7"
         transform="matrix(3.7795279,0,0,3.7795279,-77.89009,-234.54449)"><rect
           id="rect13530-2-9"
           y="62.056557"
           x="20.608419"
           height="9.9733095"
           width="13.297967"
           style="fill:none;stroke:none;stroke-width:0.61472619" /><path
           inkscape:connector-curvature="0"
           d="m 30.581893,62.056559 3.324491,4.986654 -3.324491,4.986654 -3.32449,-4.986654 z m -6.648981,10e-7 3.32449,4.986654 -3.32449,4.986654 -3.32449,-4.986654 z"
           style="opacity:1;vector-effect:none;fill:#555555;fill-opacity:1;stroke:none;stroke-width:0.88533551;stroke-linecap:butt;stroke-linejoin:bevel;stroke-miterlimit:4;stroke-dasharray:2.65600656, 2.65600656;stroke-dashoffset:0;stroke-opacity:1;paint-order:markers stroke fill"
           id="path13532-9-2" /><path
           inkscape:connector-curvature="0"
           d="m 27.257404,62.05656 3.324489,-10e-7 -3.32449,4.986654 -3.324491,-4.986654 z m -1e-6,4.986654 3.32449,4.986654 -3.324489,-2e-6 -3.324492,2e-6 z"
           style="opacity:1;vector-effect:none;fill:#16502d;fill-opacity:1;stroke:none;stroke-width:0.88533551;stroke-linecap:butt;stroke-linejoin:bevel;stroke-miterlimit:4;stroke-dasharray:2.65600656, 2.65600656;stroke-dashoffset:0;stroke-opacity:1;paint-order:markers stroke fill"
           id="path13534-1-0" /><path
           inkscape:connector-curvature="0"
           d="m 33.906385,67.043213 v 4.986653 0 l -3.324491,10e-7 z m -13.297963,1e-6 3.32449,4.986654 -3.324489,-2e-6 z m 10e-7,-4.986654 3.32449,-2e-6 -3.32449,4.986655 z m 13.297962,0 v 0 l -10e-7,4.986653 -3.32449,-4.986655 z"
           style="opacity:1;vector-effect:none;fill:#19a974;fill-opacity:1;stroke:none;stroke-width:0.88533551;stroke-linecap:butt;stroke-linejoin:bevel;stroke-miterlimit:4;stroke-dasharray:2.65600653, 2.65600653;stroke-dashoffset:0;stroke-opacity:1;paint-order:markers stroke fill"
           id="path13536-2-2" /><path
           id="path13538-7-3"
           style="opacity:1;vector-effect:none;fill:#137752;fill-opacity:1;stroke:#000000;stroke-width:0.21277149;stroke-linecap:round;stroke-linejoin:miter;stroke-miterlimit:4;stroke-dasharray:0.2127715, 0.42554299;stroke-dashoffset:0;stroke-opacity:1"
           d="m 27.257401,71.922222 -6.541749,-9.758016 m 13.083499,9.758016 -6.541748,-9.758017 m 0,9.758017 6.541748,-9.758017 m -13.083499,9.758017 6.54175,-9.758017"
           inkscape:connector-curvature="0"
           sodipodi:nodetypes="cccccccc" /></g></pattern></defs><g
     inkscape:label="Layer 1"
     inkscape:groupmode="layer"
     id="layer1"
     transform="translate(0,-78.43511)"><g
       id="g3543"
       transform="matrix(1.7209202,0,0,1.7209202,-197.27482,-69.418471)"><g
         id="milk"><path
           style="fill:none;stroke:#b3b3b3;stroke-width:0.529167;stroke-linecap:butt;stroke-linejoin:miter;stroke-dasharray:none;stroke-opacity:1"
           d="m 354.24448,141.29824 c 0,0 1.13601,0.47179 1.73551,0.47179 0.5995,0 1.13601,-0.47179 1.73551,-0.47179 0.59949,0 1.136,0.47179 1.7355,0.47179 0.59949,0 1.73551,-0.47179 1.73551,-0.47179"
           id="path25192"
           sodipodi:nodetypes="czzzc" /><path
           id="rect12951"
           style="fill:none;stroke:#aaccff;stroke-width:1.05833;stroke-linecap:round;stroke-linejoin:round;stroke-dasharray:none;stop-color:#000000"
           d="m 354.02597,138.46924 h 7.69704 l -1.19941,11.54671 h -5.29823 z"
           sodipodi:nodetypes="ccccc" /></g><path
         id="chair_dirk"
         style="fill:#803300;fill-opacity:1;stroke:none;stroke-width:0.396875;stop-color:#000000"
         d="m 400.36369,136.55719 v 55.63846 h -2.51457 v -22.52782 h -21.038 v 22.52782 h -2.51457 v -22.52782 -2.48925 h 2.51457 21.038 v -30.62139 z" /><g
         id="dirk"
         transform="matrix(2.1987587,0,0,2.1987587,177.94574,27.851921)"><path
           style="fill:none;stroke:#000000;stroke-width:8.42331;stroke-linecap:round;stroke-linejoin:miter;stroke-dasharray:none;stroke-opacity:1"
           d="m 94.595015,59.743651 c 0.802294,-2.431678 1.26218,-4.517667 1.299284,-6.417558 0.04213,-2.157117 -0.240268,-2.491029 -1.052186,-5.144247"
           id="path3814"
           sodipodi:nodetypes="csc" /><path
           style="fill:none;stroke:#000000;stroke-width:4.81332;stroke-linecap:round;stroke-linejoin:miter;stroke-dasharray:none;stroke-opacity:1"
           d="M 84.853966,73.607253 C 82.210615,61.76944 84.060073,59.885824 94.365788,61.634831"
           id="path3207"
           sodipodi:nodetypes="cc" /><path
           sodipodi:nodetypes="sssscs"
           style="fill:url(#pattern13509-3);fill-opacity:1;stroke-width:0.074097"
           d="m 88.962361,58.931701 c -1.324127,-1.254 -1.154427,-4.143577 0.4857,-8.49949 0.767668,-2.038802 0.518111,-6.463228 2.883664,-7.365376 4.748266,-1.810842 7.199867,3.055624 7.708195,7.849224 0.43479,4.100177 -0.708539,8.486415 -1.502385,9.031264 -7.201596,0.342111 -8.647207,-0.136801 -9.575174,-1.015622 z"
           id="path1528-3-0-7-1-0"
           inkscape:connector-curvature="0" /><path
           style="fill:none;stroke:#000000;stroke-width:4.21166;stroke-linecap:round;stroke-linejoin:miter;stroke-dasharray:none;stroke-opacity:1"
           d="m 94.599606,47.662767 c -0.489627,5.257924 -4.852262,7.186259 -10.872668,6.755915"
           id="path4060"
           sodipodi:nodetypes="cc"
           inkscape:transform-center-x="10.221372"
           inkscape:transform-center-y="7.7741978" /><circle
           style="fill:#000000;stroke:#000000;stroke-width:4.21166;stroke-linecap:round;stroke-dasharray:none;stop-color:#000000"
           id="path4361"
           cx="90.070145"
           cy="38.947254"
           r="1.9468364" /></g><g
         id="maria"
         transform="translate(-0.52916667,-1.0583333)"><path
           style="fill:none;stroke:#000000;stroke-width:10.5833;stroke-linecap:round;stroke-linejoin:miter;stroke-dasharray:none;stroke-opacity:1"
           d="m 159.53213,191.28401 c 5.8121,-26.02849 1.74558,-30.17011 -20.9142,-26.32447"
           id="path3207-9"
           sodipodi:nodetypes="cc" /><path
           sodipodi:nodetypes="scccsssss"
           inkscape:connector-curvature="0"
           id="path4113-1-9"
           d="m 128.16192,166.76561 c 3.63907,7.49272 11.74257,3.44076 21.1926,4.24323 1.35758,4.3263 0.0375,3.27834 1.25281,6.51161 6.77772,-1.4212 14.55584,-2.3161 17.64041,-3.85689 -0.89215,-4.46098 1.12609,-21.10961 -17.38039,-18.94376 -4.43337,0.51885 -0.7874,-7.59812 0.94584,-14.75228 1.33805,-5.52296 -2.27798,-13.94273 -11.01552,-14.37783 -12.083,-0.6017 -11.30479,20.46536 -11.66197,24.44492 -0.35329,3.93623 -3.33719,11.8648 -0.97378,16.731 z"
           style="fill:#357edd;fill-opacity:1;fill-rule:nonzero;stroke-width:0.356463" /><g
           transform="matrix(0.24628837,0,0,0.24628837,112.38305,142.48728)"
           id="g3567-6-7"><path
             inkscape:connector-curvature="0"
             style="fill:#ffb700;stroke-width:0.20051"
             d="m 85.88079,26.03675 c 1.142906,0 2.085302,0.942396 2.085302,2.085302 0,1.142906 -0.942396,2.085302 -2.085302,2.085302 -1.142906,0 -2.085302,-0.942396 -2.085302,-2.085302 0,-1.162958 0.922344,-2.085302 2.085302,-2.085302 z"
             id="path3558-0-3" /><path
             inkscape:connector-curvature="0"
             style="fill:#f4f4f4;stroke-width:0.20051"
             d="m 81.469572,31.410414 2.285812,-1.283264 c 0.40102,0.421072 0.922346,0.721836 1.503826,0.842142 l -0.0401,2.366016 c -0.02004,1.543926 -0.902296,2.927444 -2.62668,2.927444 -1.42362,0 -2.586578,-1.122854 -2.586578,-2.566526 0,-1.22311 0.822092,-1.944946 1.46372,-2.285812 z"
             id="path3556-8-6" /><path
             inkscape:connector-curvature="0"
             style="fill:#f4f4f4;stroke-width:0.20051"
             d="m 86.482318,25.25476 0.02006,-2.486322 c 0.02004,-1.563976 0.922346,-2.827188 2.586578,-2.827188 1.44367,0 2.566526,1.183008 2.566526,2.566526 0,1.263212 -0.681734,1.884792 -1.784538,2.546476 l -1.82464,1.082752 c -0.40102,-0.441122 -0.942396,-0.761938 -1.563978,-0.882244 z"
             id="path3554-9-1" /><path
             inkscape:connector-curvature="0"
             style="fill:#f4f4f4;stroke-width:0.20051"
             d="m 82.63253,19.981352 c 1.804588,0 2.62668,1.403568 2.62668,3.04775 l -0.02006,2.225658 c -0.62158,0.14036 -1.162956,0.461174 -1.563976,0.922346 l -1.884786,-1.102804 c -1.122854,-0.681734 -1.724384,-1.363466 -1.724384,-2.526424 0,-1.463722 1.122854,-2.566526 2.566526,-2.566526 z"
             id="path3552-2-2" /><path
             inkscape:connector-curvature="0"
             style="fill:#f4f4f4;stroke-width:0.20051"
             d="m 88.667876,27.219758 2.325914,-1.243162 c 0.501276,-0.260662 1.00255,-0.40102 1.443672,-0.40102 1.383518,0 2.486322,1.243162 2.486322,2.606628 0,1.303314 -1.102804,2.566528 -2.466272,2.566528 -0.501274,0 -1.102804,-0.1604 -1.704332,-0.521326 l -2.105354,-1.22311 c 0.0802,-0.280714 0.14036,-0.58148 0.14036,-0.902294 0.02004,-0.300766 -0.02004,-0.60153 -0.1203,-0.882244 z"
             id="path3550-2-9" /><path
             inkscape:connector-curvature="0"
             style="fill:#f4f4f4;stroke-width:0.20051"
             d="m 79.344168,25.575576 c 0.481224,0 1.0226,0.14036 1.62413,0.501276 l 2.085302,1.24316 c -0.0802,0.260664 -0.1203,0.521326 -0.1203,0.80204 0,0.300764 0.0401,0.60153 0.14036,0.882244 L 80.848,30.32766 c -0.501274,0.280714 -1.00255,0.40102 -1.463722,0.40102 -1.443672,0 -2.566526,-1.162956 -2.566526,-2.566526 0.02004,-1.323366 1.102804,-2.586578 2.526424,-2.586578 z"
             id="path3548-31-3" /><path
             inkscape:connector-curvature="0"
             style="fill:#f4f4f4;stroke-width:0.20051"
             d="m 88.006194,30.147202 2.105354,1.203058 c 1.062702,0.621582 1.563976,1.40357 1.563976,2.386068 0,1.483774 -1.162956,2.586578 -2.566526,2.586578 -1.724384,0 -2.586578,-1.323366 -2.586578,-2.947496 l 0.0401,-2.386066 c 0.561428,-0.1604 1.062704,-0.441122 1.443674,-0.842142 z"
             id="path3509-83-1" /></g><g
           transform="matrix(0.24628837,0,0,0.24628837,120.44891,147.49474)"
           id="g3567-6-9"><path
             inkscape:connector-curvature="0"
             style="fill:#ffb700;stroke-width:0.20051"
             d="m 85.88079,26.03675 c 1.142906,0 2.085302,0.942396 2.085302,2.085302 0,1.142906 -0.942396,2.085302 -2.085302,2.085302 -1.142906,0 -2.085302,-0.942396 -2.085302,-2.085302 0,-1.162958 0.922344,-2.085302 2.085302,-2.085302 z"
             id="path3558-0-4" /><path
             inkscape:connector-curvature="0"
             style="fill:#f4f4f4;stroke-width:0.20051"
             d="m 81.469572,31.410414 2.285812,-1.283264 c 0.40102,0.421072 0.922346,0.721836 1.503826,0.842142 l -0.0401,2.366016 c -0.02004,1.543926 -0.902296,2.927444 -2.62668,2.927444 -1.42362,0 -2.586578,-1.122854 -2.586578,-2.566526 0,-1.22311 0.822092,-1.944946 1.46372,-2.285812 z"
             id="path3556-8-7" /><path
             inkscape:connector-curvature="0"
             style="fill:#f4f4f4;stroke-width:0.20051"
             d="m 86.482318,25.25476 0.02006,-2.486322 c 0.02004,-1.563976 0.922346,-2.827188 2.586578,-2.827188 1.44367,0 2.566526,1.183008 2.566526,2.566526 0,1.263212 -0.681734,1.884792 -1.784538,2.546476 l -1.82464,1.082752 c -0.40102,-0.441122 -0.942396,-0.761938 -1.563978,-0.882244 z"
             id="path3554-9-8" /><path
             inkscape:connector-curvature="0"
             style="fill:#f4f4f4;stroke-width:0.20051"
             d="m 82.63253,19.981352 c 1.804588,0 2.62668,1.403568 2.62668,3.04775 l -0.02006,2.225658 c -0.62158,0.14036 -1.162956,0.461174 -1.563976,0.922346 l -1.884786,-1.102804 c -1.122854,-0.681734 -1.724384,-1.363466 -1.724384,-2.526424 0,-1.463722 1.122854,-2.566526 2.566526,-2.566526 z"
             id="path3552-2-4" /><path
             inkscape:connector-curvature="0"
             style="fill:#f4f4f4;stroke-width:0.20051"
             d="m 88.667876,27.219758 2.325914,-1.243162 c 0.501276,-0.260662 1.00255,-0.40102 1.443672,-0.40102 1.383518,0 2.486322,1.243162 2.486322,2.606628 0,1.303314 -1.102804,2.566528 -2.466272,2.566528 -0.501274,0 -1.102804,-0.1604 -1.704332,-0.521326 l -2.105354,-1.22311 c 0.0802,-0.280714 0.14036,-0.58148 0.14036,-0.902294 0.02004,-0.300766 -0.02004,-0.60153 -0.1203,-0.882244 z"
             id="path3550-2-5" /><path
             inkscape:connector-curvature="0"
             style="fill:#f4f4f4;stroke-width:0.20051"
             d="m 79.344168,25.575576 c 0.481224,0 1.0226,0.14036 1.62413,0.501276 l 2.085302,1.24316 c -0.0802,0.260664 -0.1203,0.521326 -0.1203,0.80204 0,0.300764 0.0401,0.60153 0.14036,0.882244 L 80.848,30.32766 c -0.501274,0.280714 -1.00255,0.40102 -1.463722,0.40102 -1.443672,0 -2.566526,-1.162956 -2.566526,-2.566526 0.02004,-1.323366 1.102804,-2.586578 2.526424,-2.586578 z"
             id="path3548-31-0" /><path
             inkscape:connector-curvature="0"
             style="fill:#f4f4f4;stroke-width:0.20051"
             d="m 88.006194,30.147202 2.105354,1.203058 c 1.062702,0.621582 1.563976,1.40357 1.563976,2.386068 0,1.483774 -1.162956,2.586578 -2.566526,2.586578 -1.724384,0 -2.586578,-1.323366 -2.586578,-2.947496 l 0.0401,-2.386066 c 0.561428,-0.1604 1.062704,-0.441122 1.443674,-0.842142 z"
             id="path3509-83-3" /></g><g
           transform="matrix(0.24628837,0,0,0.24628837,140.61689,163.94144)"
           id="g3567-6-6"><path
             inkscape:connector-curvature="0"
             style="fill:#ffb700;stroke-width:0.20051"
             d="m 85.88079,26.03675 c 1.142906,0 2.085302,0.942396 2.085302,2.085302 0,1.142906 -0.942396,2.085302 -2.085302,2.085302 -1.142906,0 -2.085302,-0.942396 -2.085302,-2.085302 0,-1.162958 0.922344,-2.085302 2.085302,-2.085302 z"
             id="path3558-0-1" /><path
             inkscape:connector-curvature="0"
             style="fill:#f4f4f4;stroke-width:0.20051"
             d="m 81.469572,31.410414 2.285812,-1.283264 c 0.40102,0.421072 0.922346,0.721836 1.503826,0.842142 l -0.0401,2.366016 c -0.02004,1.543926 -0.902296,2.927444 -2.62668,2.927444 -1.42362,0 -2.586578,-1.122854 -2.586578,-2.566526 0,-1.22311 0.822092,-1.944946 1.46372,-2.285812 z"
             id="path3556-8-0" /><path
             inkscape:connector-curvature="0"
             style="fill:#f4f4f4;stroke-width:0.20051"
             d="m 86.482318,25.25476 0.02006,-2.486322 c 0.02004,-1.563976 0.922346,-2.827188 2.586578,-2.827188 1.44367,0 2.566526,1.183008 2.566526,2.566526 0,1.263212 -0.681734,1.884792 -1.784538,2.546476 l -1.82464,1.082752 c -0.40102,-0.441122 -0.942396,-0.761938 -1.563978,-0.882244 z"
             id="path3554-9-6" /><path
             inkscape:connector-curvature="0"
             style="fill:#f4f4f4;stroke-width:0.20051"
             d="m 82.63253,19.981352 c 1.804588,0 2.62668,1.403568 2.62668,3.04775 l -0.02006,2.225658 c -0.62158,0.14036 -1.162956,0.461174 -1.563976,0.922346 l -1.884786,-1.102804 c -1.122854,-0.681734 -1.724384,-1.363466 -1.724384,-2.526424 0,-1.463722 1.122854,-2.566526 2.566526,-2.566526 z"
             id="path3552-2-3" /><path
             inkscape:connector-curvature="0"
             style="fill:#f4f4f4;stroke-width:0.20051"
             d="m 88.667876,27.219758 2.325914,-1.243162 c 0.501276,-0.260662 1.00255,-0.40102 1.443672,-0.40102 1.383518,0 2.486322,1.243162 2.486322,2.606628 0,1.303314 -1.102804,2.566528 -2.466272,2.566528 -0.501274,0 -1.102804,-0.1604 -1.704332,-0.521326 l -2.105354,-1.22311 c 0.0802,-0.280714 0.14036,-0.58148 0.14036,-0.902294 0.02004,-0.300766 -0.02004,-0.60153 -0.1203,-0.882244 z"
             id="path3550-2-2" /><path
             inkscape:connector-curvature="0"
             style="fill:#f4f4f4;stroke-width:0.20051"
             d="m 79.344168,25.575576 c 0.481224,0 1.0226,0.14036 1.62413,0.501276 l 2.085302,1.24316 c -0.0802,0.260664 -0.1203,0.521326 -0.1203,0.80204 0,0.300764 0.0401,0.60153 0.14036,0.882244 L 80.848,30.32766 c -0.501274,0.280714 -1.00255,0.40102 -1.463722,0.40102 -1.443672,0 -2.566526,-1.162956 -2.566526,-2.566526 0.02004,-1.323366 1.102804,-2.586578 2.526424,-2.586578 z"
             id="path3548-31-06" /><path
             inkscape:connector-curvature="0"
             style="fill:#f4f4f4;stroke-width:0.20051"
             d="m 88.006194,30.147202 2.105354,1.203058 c 1.062702,0.621582 1.563976,1.40357 1.563976,2.386068 0,1.483774 -1.162956,2.586578 -2.566526,2.586578 -1.724384,0 -2.586578,-1.323366 -2.586578,-2.947496 l 0.0401,-2.386066 c 0.561428,-0.1604 1.062704,-0.441122 1.443674,-0.842142 z"
             id="path3509-83-15" /></g><g
           transform="matrix(0.24628837,0,0,0.24628837,111.9102,157.60745)"
           id="g3567-6-5"><path
             inkscape:connector-curvature="0"
             style="fill:#ffb700;stroke-width:0.20051"
             d="m 85.88079,26.03675 c 1.142906,0 2.085302,0.942396 2.085302,2.085302 0,1.142906 -0.942396,2.085302 -2.085302,2.085302 -1.142906,0 -2.085302,-0.942396 -2.085302,-2.085302 0,-1.162958 0.922344,-2.085302 2.085302,-2.085302 z"
             id="path3558-0-47" /><path
             inkscape:connector-curvature="0"
             style="fill:#f4f4f4;stroke-width:0.20051"
             d="m 81.469572,31.410414 2.285812,-1.283264 c 0.40102,0.421072 0.922346,0.721836 1.503826,0.842142 l -0.0401,2.366016 c -0.02004,1.543926 -0.902296,2.927444 -2.62668,2.927444 -1.42362,0 -2.586578,-1.122854 -2.586578,-2.566526 0,-1.22311 0.822092,-1.944946 1.46372,-2.285812 z"
             id="path3556-8-65" /><path
             inkscape:connector-curvature="0"
             style="fill:#f4f4f4;stroke-width:0.20051"
             d="m 86.482318,25.25476 0.02006,-2.486322 c 0.02004,-1.563976 0.922346,-2.827188 2.586578,-2.827188 1.44367,0 2.566526,1.183008 2.566526,2.566526 0,1.263212 -0.681734,1.884792 -1.784538,2.546476 l -1.82464,1.082752 c -0.40102,-0.441122 -0.942396,-0.761938 -1.563978,-0.882244 z"
             id="path3554-9-69" /><path
             inkscape:connector-curvature="0"
             style="fill:#f4f4f4;stroke-width:0.20051"
             d="m 82.63253,19.981352 c 1.804588,0 2.62668,1.403568 2.62668,3.04775 l -0.02006,2.225658 c -0.62158,0.14036 -1.162956,0.461174 -1.563976,0.922346 l -1.884786,-1.102804 c -1.122854,-0.681734 -1.724384,-1.363466 -1.724384,-2.526424 0,-1.463722 1.122854,-2.566526 2.566526,-2.566526 z"
             id="path3552-2-37" /><path
             inkscape:connector-curvature="0"
             style="fill:#f4f4f4;stroke-width:0.20051"
             d="m 88.667876,27.219758 2.325914,-1.243162 c 0.501276,-0.260662 1.00255,-0.40102 1.443672,-0.40102 1.383518,0 2.486322,1.243162 2.486322,2.606628 0,1.303314 -1.102804,2.566528 -2.466272,2.566528 -0.501274,0 -1.102804,-0.1604 -1.704332,-0.521326 l -2.105354,-1.22311 c 0.0802,-0.280714 0.14036,-0.58148 0.14036,-0.902294 0.02004,-0.300766 -0.02004,-0.60153 -0.1203,-0.882244 z"
             id="path3550-2-4" /><path
             inkscape:connector-curvature="0"
             style="fill:#f4f4f4;stroke-width:0.20051"
             d="m 79.344168,25.575576 c 0.481224,0 1.0226,0.14036 1.62413,0.501276 l 2.085302,1.24316 c -0.0802,0.260664 -0.1203,0.521326 -0.1203,0.80204 0,0.300764 0.0401,0.60153 0.14036,0.882244 L 80.848,30.32766 c -0.501274,0.280714 -1.00255,0.40102 -1.463722,0.40102 -1.443672,0 -2.566526,-1.162956 -2.566526,-2.566526 0.02004,-1.323366 1.102804,-2.586578 2.526424,-2.586578 z"
             id="path3548-31-5" /><path
             inkscape:connector-curvature="0"
             style="fill:#f4f4f4;stroke-width:0.20051"
             d="m 88.006194,30.147202 2.105354,1.203058 c 1.062702,0.621582 1.563976,1.40357 1.563976,2.386068 0,1.483774 -1.162956,2.586578 -2.566526,2.586578 -1.724384,0 -2.586578,-1.323366 -2.586578,-2.947496 l 0.0401,-2.386066 c 0.561428,-0.1604 1.062704,-0.441122 1.443674,-0.842142 z"
             id="path3509-83-2" /></g><g
           transform="matrix(0.24628837,0,0,0.24628837,133.28594,153.77081)"
           id="g3567-6-54"><path
             inkscape:connector-curvature="0"
             style="fill:#ffb700;stroke-width:0.20051"
             d="m 85.88079,26.03675 c 1.142906,0 2.085302,0.942396 2.085302,2.085302 0,1.142906 -0.942396,2.085302 -2.085302,2.085302 -1.142906,0 -2.085302,-0.942396 -2.085302,-2.085302 0,-1.162958 0.922344,-2.085302 2.085302,-2.085302 z"
             id="path3558-0-7" /><path
             inkscape:connector-curvature="0"
             style="fill:#f4f4f4;stroke-width:0.20051"
             d="m 81.469572,31.410414 2.285812,-1.283264 c 0.40102,0.421072 0.922346,0.721836 1.503826,0.842142 l -0.0401,2.366016 c -0.02004,1.543926 -0.902296,2.927444 -2.62668,2.927444 -1.42362,0 -2.586578,-1.122854 -2.586578,-2.566526 0,-1.22311 0.822092,-1.944946 1.46372,-2.285812 z"
             id="path3556-8-4" /><path
             inkscape:connector-curvature="0"
             style="fill:#f4f4f4;stroke-width:0.20051"
             d="m 86.482318,25.25476 0.02006,-2.486322 c 0.02004,-1.563976 0.922346,-2.827188 2.586578,-2.827188 1.44367,0 2.566526,1.183008 2.566526,2.566526 0,1.263212 -0.681734,1.884792 -1.784538,2.546476 l -1.82464,1.082752 c -0.40102,-0.441122 -0.942396,-0.761938 -1.563978,-0.882244 z"
             id="path3554-9-4" /><path
             inkscape:connector-curvature="0"
             style="fill:#f4f4f4;stroke-width:0.20051"
             d="m 82.63253,19.981352 c 1.804588,0 2.62668,1.403568 2.62668,3.04775 l -0.02006,2.225658 c -0.62158,0.14036 -1.162956,0.461174 -1.563976,0.922346 l -1.884786,-1.102804 c -1.122854,-0.681734 -1.724384,-1.363466 -1.724384,-2.526424 0,-1.463722 1.122854,-2.566526 2.566526,-2.566526 z"
             id="path3552-2-30" /><path
             inkscape:connector-curvature="0"
             style="fill:#f4f4f4;stroke-width:0.20051"
             d="m 88.667876,27.219758 2.325914,-1.243162 c 0.501276,-0.260662 1.00255,-0.40102 1.443672,-0.40102 1.383518,0 2.486322,1.243162 2.486322,2.606628 0,1.303314 -1.102804,2.566528 -2.466272,2.566528 -0.501274,0 -1.102804,-0.1604 -1.704332,-0.521326 l -2.105354,-1.22311 c 0.0802,-0.280714 0.14036,-0.58148 0.14036,-0.902294 0.02004,-0.300766 -0.02004,-0.60153 -0.1203,-0.882244 z"
             id="path3550-2-7" /><path
             inkscape:connector-curvature="0"
             style="fill:#f4f4f4;stroke-width:0.20051"
             d="m 79.344168,25.575576 c 0.481224,0 1.0226,0.14036 1.62413,0.501276 l 2.085302,1.24316 c -0.0802,0.260664 -0.1203,0.521326 -0.1203,0.80204 0,0.300764 0.0401,0.60153 0.14036,0.882244 L 80.848,30.32766 c -0.501274,0.280714 -1.00255,0.40102 -1.463722,0.40102 -1.443672,0 -2.566526,-1.162956 -2.566526,-2.566526 0.02004,-1.323366 1.102804,-2.586578 2.526424,-2.586578 z"
             id="path3548-31-8" /><path
             inkscape:connector-curvature="0"
             style="fill:#f4f4f4;stroke-width:0.20051"
             d="m 88.006194,30.147202 2.105354,1.203058 c 1.062702,0.621582 1.563976,1.40357 1.563976,2.386068 0,1.483774 -1.162956,2.586578 -2.566526,2.586578 -1.724384,0 -2.586578,-1.323366 -2.586578,-2.947496 l 0.0401,-2.386066 c 0.561428,-0.1604 1.062704,-0.441122 1.443674,-0.842142 z"
             id="path3509-83-6" /></g><g
           transform="matrix(0.24628837,0,0,0.24628837,123.04869,158.97356)"
           id="g3567-6-54-2"><path
             inkscape:connector-curvature="0"
             style="fill:#ffb700;stroke-width:0.20051"
             d="m 85.88079,26.03675 c 1.142906,0 2.085302,0.942396 2.085302,2.085302 0,1.142906 -0.942396,2.085302 -2.085302,2.085302 -1.142906,0 -2.085302,-0.942396 -2.085302,-2.085302 0,-1.162958 0.922344,-2.085302 2.085302,-2.085302 z"
             id="path3558-0-7-2" /><path
             inkscape:connector-curvature="0"
             style="fill:#f4f4f4;stroke-width:0.20051"
             d="m 81.469572,31.410414 2.285812,-1.283264 c 0.40102,0.421072 0.922346,0.721836 1.503826,0.842142 l -0.0401,2.366016 c -0.02004,1.543926 -0.902296,2.927444 -2.62668,2.927444 -1.42362,0 -2.586578,-1.122854 -2.586578,-2.566526 0,-1.22311 0.822092,-1.944946 1.46372,-2.285812 z"
             id="path3556-8-4-6" /><path
             inkscape:connector-curvature="0"
             style="fill:#f4f4f4;stroke-width:0.20051"
             d="m 86.482318,25.25476 0.02006,-2.486322 c 0.02004,-1.563976 0.922346,-2.827188 2.586578,-2.827188 1.44367,0 2.566526,1.183008 2.566526,2.566526 0,1.263212 -0.681734,1.884792 -1.784538,2.546476 l -1.82464,1.082752 c -0.40102,-0.441122 -0.942396,-0.761938 -1.563978,-0.882244 z"
             id="path3554-9-4-1" /><path
             inkscape:connector-curvature="0"
             style="fill:#f4f4f4;stroke-width:0.20051"
             d="m 82.63253,19.981352 c 1.804588,0 2.62668,1.403568 2.62668,3.04775 l -0.02006,2.225658 c -0.62158,0.14036 -1.162956,0.461174 -1.563976,0.922346 l -1.884786,-1.102804 c -1.122854,-0.681734 -1.724384,-1.363466 -1.724384,-2.526424 0,-1.463722 1.122854,-2.566526 2.566526,-2.566526 z"
             id="path3552-2-30-0" /><path
             inkscape:connector-curvature="0"
             style="fill:#f4f4f4;stroke-width:0.20051"
             d="m 88.667876,27.219758 2.325914,-1.243162 c 0.501276,-0.260662 1.00255,-0.40102 1.443672,-0.40102 1.383518,0 2.486322,1.243162 2.486322,2.606628 0,1.303314 -1.102804,2.566528 -2.466272,2.566528 -0.501274,0 -1.102804,-0.1604 -1.704332,-0.521326 l -2.105354,-1.22311 c 0.0802,-0.280714 0.14036,-0.58148 0.14036,-0.902294 0.02004,-0.300766 -0.02004,-0.60153 -0.1203,-0.882244 z"
             id="path3550-2-7-6" /><path
             inkscape:connector-curvature="0"
             style="fill:#f4f4f4;stroke-width:0.20051"
             d="m 79.344168,25.575576 c 0.481224,0 1.0226,0.14036 1.62413,0.501276 l 2.085302,1.24316 c -0.0802,0.260664 -0.1203,0.521326 -0.1203,0.80204 0,0.300764 0.0401,0.60153 0.14036,0.882244 L 80.848,30.32766 c -0.501274,0.280714 -1.00255,0.40102 -1.463722,0.40102 -1.443672,0 -2.566526,-1.162956 -2.566526,-2.566526 0.02004,-1.323366 1.102804,-2.586578 2.526424,-2.586578 z"
             id="path3548-31-8-1" /><path
             inkscape:connector-curvature="0"
             style="fill:#f4f4f4;stroke-width:0.20051"
             d="m 88.006194,30.147202 2.105354,1.203058 c 1.062702,0.621582 1.563976,1.40357 1.563976,2.386068 0,1.483774 -1.162956,2.586578 -2.566526,2.586578 -1.724384,0 -2.586578,-1.323366 -2.586578,-2.947496 l 0.0401,-2.386066 c 0.561428,-0.1604 1.062704,-0.441122 1.443674,-0.842142 z"
             id="path3509-83-6-5" /></g><g
           transform="matrix(0.24628837,0,0,0.24628837,123.29491,125.72988)"
           id="g3567-6-8"><path
             inkscape:connector-curvature="0"
             style="fill:#ffb700;stroke-width:0.20051"
             d="m 85.88079,26.03675 c 1.142906,0 2.085302,0.942396 2.085302,2.085302 0,1.142906 -0.942396,2.085302 -2.085302,2.085302 -1.142906,0 -2.085302,-0.942396 -2.085302,-2.085302 0,-1.162958 0.922344,-2.085302 2.085302,-2.085302 z"
             id="path3558-0-8" /><path
             inkscape:connector-curvature="0"
             style="fill:#f4f4f4;stroke-width:0.20051"
             d="m 81.469572,31.410414 2.285812,-1.283264 c 0.40102,0.421072 0.922346,0.721836 1.503826,0.842142 l -0.0401,2.366016 c -0.02004,1.543926 -0.902296,2.927444 -2.62668,2.927444 -1.42362,0 -2.586578,-1.122854 -2.586578,-2.566526 0,-1.22311 0.822092,-1.944946 1.46372,-2.285812 z"
             id="path3556-8-43" /><path
             inkscape:connector-curvature="0"
             style="fill:#f4f4f4;stroke-width:0.20051"
             d="m 86.482318,25.25476 0.02006,-2.486322 c 0.02004,-1.563976 0.922346,-2.827188 2.586578,-2.827188 1.44367,0 2.566526,1.183008 2.566526,2.566526 0,1.263212 -0.681734,1.884792 -1.784538,2.546476 l -1.82464,1.082752 c -0.40102,-0.441122 -0.942396,-0.761938 -1.563978,-0.882244 z"
             id="path3554-9-14" /><path
             inkscape:connector-curvature="0"
             style="fill:#f4f4f4;stroke-width:0.20051"
             d="m 82.63253,19.981352 c 1.804588,0 2.62668,1.403568 2.62668,3.04775 l -0.02006,2.225658 c -0.62158,0.14036 -1.162956,0.461174 -1.563976,0.922346 l -1.884786,-1.102804 c -1.122854,-0.681734 -1.724384,-1.363466 -1.724384,-2.526424 0,-1.463722 1.122854,-2.566526 2.566526,-2.566526 z"
             id="path3552-2-9" /><path
             inkscape:connector-curvature="0"
             style="fill:#f4f4f4;stroke-width:0.20051"
             d="m 88.667876,27.219758 2.325914,-1.243162 c 0.501276,-0.260662 1.00255,-0.40102 1.443672,-0.40102 1.383518,0 2.486322,1.243162 2.486322,2.606628 0,1.303314 -1.102804,2.566528 -2.466272,2.566528 -0.501274,0 -1.102804,-0.1604 -1.704332,-0.521326 l -2.105354,-1.22311 c 0.0802,-0.280714 0.14036,-0.58148 0.14036,-0.902294 0.02004,-0.300766 -0.02004,-0.60153 -0.1203,-0.882244 z"
             id="path3550-2-20" /><path
             inkscape:connector-curvature="0"
             style="fill:#f4f4f4;stroke-width:0.20051"
             d="m 79.344168,25.575576 c 0.481224,0 1.0226,0.14036 1.62413,0.501276 l 2.085302,1.24316 c -0.0802,0.260664 -0.1203,0.521326 -0.1203,0.80204 0,0.300764 0.0401,0.60153 0.14036,0.882244 L 80.848,30.32766 c -0.501274,0.280714 -1.00255,0.40102 -1.463722,0.40102 -1.443672,0 -2.566526,-1.162956 -2.566526,-2.566526 0.02004,-1.323366 1.102804,-2.586578 2.526424,-2.586578 z"
             id="path3548-31-6" /><path
             inkscape:connector-curvature="0"
             style="fill:#f4f4f4;stroke-width:0.20051"
             d="m 88.006194,30.147202 2.105354,1.203058 c 1.062702,0.621582 1.563976,1.40357 1.563976,2.386068 0,1.483774 -1.162956,2.586578 -2.566526,2.586578 -1.724384,0 -2.586578,-1.323366 -2.586578,-2.947496 l 0.0401,-2.386066 c 0.561428,-0.1604 1.062704,-0.441122 1.443674,-0.842142 z"
             id="path3509-83-8" /></g><g
           transform="matrix(0.24628837,0,0,0.24628837,112.34255,131.60996)"
           id="g3567-6-92"><path
             inkscape:connector-curvature="0"
             style="fill:#ffb700;stroke-width:0.20051"
             d="m 85.88079,26.03675 c 1.142906,0 2.085302,0.942396 2.085302,2.085302 0,1.142906 -0.942396,2.085302 -2.085302,2.085302 -1.142906,0 -2.085302,-0.942396 -2.085302,-2.085302 0,-1.162958 0.922344,-2.085302 2.085302,-2.085302 z"
             id="path3558-0-6" /><path
             inkscape:connector-curvature="0"
             style="fill:#f4f4f4;stroke-width:0.20051"
             d="m 81.469572,31.410414 2.285812,-1.283264 c 0.40102,0.421072 0.922346,0.721836 1.503826,0.842142 l -0.0401,2.366016 c -0.02004,1.543926 -0.902296,2.927444 -2.62668,2.927444 -1.42362,0 -2.586578,-1.122854 -2.586578,-2.566526 0,-1.22311 0.822092,-1.944946 1.46372,-2.285812 z"
             id="path3556-8-64" /><path
             inkscape:connector-curvature="0"
             style="fill:#f4f4f4;stroke-width:0.20051"
             d="m 86.482318,25.25476 0.02006,-2.486322 c 0.02004,-1.563976 0.922346,-2.827188 2.586578,-2.827188 1.44367,0 2.566526,1.183008 2.566526,2.566526 0,1.263212 -0.681734,1.884792 -1.784538,2.546476 l -1.82464,1.082752 c -0.40102,-0.441122 -0.942396,-0.761938 -1.563978,-0.882244 z"
             id="path3554-9-9" /><path
             inkscape:connector-curvature="0"
             style="fill:#f4f4f4;stroke-width:0.20051"
             d="m 82.63253,19.981352 c 1.804588,0 2.62668,1.403568 2.62668,3.04775 l -0.02006,2.225658 c -0.62158,0.14036 -1.162956,0.461174 -1.563976,0.922346 l -1.884786,-1.102804 c -1.122854,-0.681734 -1.724384,-1.363466 -1.724384,-2.526424 0,-1.463722 1.122854,-2.566526 2.566526,-2.566526 z"
             id="path3552-2-5" /><path
             inkscape:connector-curvature="0"
             style="fill:#f4f4f4;stroke-width:0.20051"
             d="m 88.667876,27.219758 2.325914,-1.243162 c 0.501276,-0.260662 1.00255,-0.40102 1.443672,-0.40102 1.383518,0 2.486322,1.243162 2.486322,2.606628 0,1.303314 -1.102804,2.566528 -2.466272,2.566528 -0.501274,0 -1.102804,-0.1604 -1.704332,-0.521326 l -2.105354,-1.22311 c 0.0802,-0.280714 0.14036,-0.58148 0.14036,-0.902294 0.02004,-0.300766 -0.02004,-0.60153 -0.1203,-0.882244 z"
             id="path3550-2-0" /><path
             inkscape:connector-curvature="0"
             style="fill:#f4f4f4;stroke-width:0.20051"
             d="m 79.344168,25.575576 c 0.481224,0 1.0226,0.14036 1.62413,0.501276 l 2.085302,1.24316 c -0.0802,0.260664 -0.1203,0.521326 -0.1203,0.80204 0,0.300764 0.0401,0.60153 0.14036,0.882244 L 80.848,30.32766 c -0.501274,0.280714 -1.00255,0.40102 -1.463722,0.40102 -1.443672,0 -2.566526,-1.162956 -2.566526,-2.566526 0.02004,-1.323366 1.102804,-2.586578 2.526424,-2.586578 z"
             id="path3548-31-4" /><path
             inkscape:connector-curvature="0"
             style="fill:#f4f4f4;stroke-width:0.20051"
             d="m 88.006194,30.147202 2.105354,1.203058 c 1.062702,0.621582 1.563976,1.40357 1.563976,2.386068 0,1.483774 -1.162956,2.586578 -2.566526,2.586578 -1.724384,0 -2.586578,-1.323366 -2.586578,-2.947496 l 0.0401,-2.386066 c 0.561428,-0.1604 1.062704,-0.441122 1.443674,-0.842142 z"
             id="path3509-83-87" /></g><path
           style="fill:none;stroke:#000000;stroke-width:7.9375;stroke-linecap:round;stroke-linejoin:miter;stroke-dasharray:none;stroke-opacity:1"
           d="m 140.5794,134.33387 c 0.57659,11.5966 8.64386,14.82977 21.59281,12.65919"
           id="path4060-2"
           sodipodi:nodetypes="cc"
           inkscape:transform-center-x="9.8790659"
           inkscape:transform-center-y="8.1546168" /><g
           id="g10528"
           transform="translate(0.84075352,1.5808934)"><path
             inkscape:connector-curvature="0"
             d="m 144.67682,104.93057 c -0.64955,-0.87633 -1.61348,-1.52334 -2.77004,-1.7423 -2.43745,-0.46143 -4.78763,1.14056 -5.24905,3.57802 -0.29427,1.55435 0.2529,3.0709 1.3187,4.08703 0.4992,-1.25668 1.25571,-2.40858 2.24674,-3.38687 1.25701,-1.24124 2.78774,-2.10352 4.45365,-2.53588 z"
             id="path4117-5-7"
             style="fill:#000000;fill-opacity:1;stroke-width:0.399282" /><g
             style="fill:#000000;fill-opacity:1"
             id="g4218-4-2"
             transform="matrix(2.6279885,0,0,2.6279885,-132.77864,71.99136)"><circle
               r="3.4184093"
               cy="16.179581"
               cx="106.52979"
               id="path6312-1-7"
               style="opacity:1;fill:#000000;fill-opacity:1;stroke:none;stroke-width:0.379823;stroke-linecap:butt;stroke-linejoin:bevel;stroke-miterlimit:4;stroke-dasharray:none;stroke-dashoffset:0;stroke-opacity:1;paint-order:markers stroke fill" /></g></g></g><path
         id="chair_maria"
         style="fill:#803300;fill-opacity:1;stroke:none;stroke-width:0.396875;stop-color:#000000"
         d="m 124.09389,138.642 v 55.63846 h 2.51457 v -22.52782 h 21.038 v 22.52782 h 2.51457 v -22.52782 -2.48925 h -2.51457 -21.038 V 138.642 Z" /><g
         id="table"
         transform="translate(-3.1750001,-0.52916667)"
         style="fill:#803300;stroke:none"><rect
           style="fill:#803300;stroke:none;stroke-width:0.911655;stop-color:#000000"
           id="rect746-6"
           width="3.6821563"
           height="208.87289"
           x="-154.75078"
           y="-369.94446"
           transform="matrix(0,-1,-1,0,0,0)" /><g
           id="g12288"
           transform="translate(0.45579684)"><rect
             style="fill:#803300;stroke:none;stroke-width:0.396875;stop-color:#000000"
             id="rect746-3"
             width="3.6821563"
             height="39.584846"
             x="347.77155"
             y="153.10814" /><rect
             style="fill:#803300;stroke:none;stroke-width:0.396875;stop-color:#000000"
             id="rect746"
             width="3.6821563"
             height="39.584846"
             x="178.65073"
             y="153.63728" /></g></g></g></g></svg>
