<?xml version="1.0" encoding="UTF-8" standalone="no"?>
<!-- Created with Inkscape (http://www.inkscape.org/) -->

<svg
   version="1.1"
   id="svg25"
   xml:space="preserve"
   width="1315.2163"
   height="470.2204"
   viewBox="0 0 1315.2163 470.2204"
   xmlns="http://www.w3.org/2000/svg"
   xmlns:svg="http://www.w3.org/2000/svg"><defs
     id="defs29"><clipPath
       clipPathUnits="userSpaceOnUse"
       id="clipPath49"><path
         d="M 0,564.094 H 1204.724 V 0 H 0 Z"
         id="path47" /></clipPath></defs><g
     id="g31"
     transform="matrix(1.3333333,0,0,-1.3333333,-146.16226,606.64558)"><g
       id="g33"
       transform="translate(274.0897,318.3686)"><path
         d="M 0,0 -46.825,-151.922 -93.65,0 h -70.818 l 76.624,-212.995 81.652,-0.001 L 70.431,0 Z"
         style="fill:#231f20;fill-opacity:1;fill-rule:nonzero;stroke:none"
         id="path35" /></g><path
       d="m 426.945,105.371 h -66.173 v 212.997 h 66.173 z"
       style="fill:#231f20;fill-opacity:1;fill-rule:nonzero;stroke:none"
       id="path37" /><g
       id="g39"
       transform="translate(560.4537,166.4451)"><path
         d="m 0,0 46.825,151.923 h 70.431 L 40.633,-61.074 H -41.02 l -76.623,212.997 h 70.818 z"
         style="fill:#231f20;fill-opacity:1;fill-rule:nonzero;stroke:none"
         id="path41" /></g><g
       id="g43"><g
         id="g45"
         clip-path="url(#clipPath49)"><g
           id="g51"
           transform="translate(896.3493,196.2219)"><path
             d="m 0,0 h -149.761 c 1.029,-13.235 5.35,-23.35 12.964,-30.347 7.607,-7.001 16.96,-10.496 28.056,-10.496 16.509,0 27.99,6.87 34.442,20.611 h 70.431 c -3.616,-13.997 -10.128,-26.594 -19.545,-37.788 -9.417,-11.202 -21.222,-19.982 -35.406,-26.341 -14.192,-6.363 -30.058,-9.542 -47.602,-9.542 -21.155,0 -39.99,4.45 -56.499,13.36 -16.512,8.906 -29.407,21.628 -38.695,38.172 -9.288,16.539 -13.932,35.881 -13.932,58.021 0,22.14 4.577,41.475 13.735,58.021 9.155,16.539 21.995,29.259 38.506,38.171 16.508,8.904 35.471,13.36 56.885,13.36 20.9,0 39.475,-4.33 55.727,-12.979 C -34.441,103.57 -21.735,91.23 -12.577,75.197 -3.422,59.165 1.161,40.461 1.161,19.084 1.161,12.977 0.775,6.613 0,0 m -66.559,36.263 c 0,11.194 -3.872,20.099 -11.612,26.719 -7.739,6.615 -17.413,9.925 -29.022,9.925 -11.095,0 -20.45,-3.186 -28.056,-9.542 -7.613,-6.365 -12.324,-15.401 -14.125,-27.102 z"
             style="fill:#231f20;fill-opacity:1;fill-rule:nonzero;stroke:none"
             id="path53" /></g><g
           id="g55"
           transform="translate(958.2676,111.8619)"><path
             d="m 0,0 c -14.704,6.359 -26.316,15.078 -34.828,26.148 -8.515,11.07 -13.289,23.476 -14.317,37.217 h 65.397 c 0.776,-7.383 4.258,-13.36 10.45,-17.941 6.191,-4.581 13.798,-6.871 22.833,-6.871 8.252,0 14.638,1.587 19.155,4.773 4.511,3.178 6.771,7.311 6.771,12.406 0,6.107 -3.229,10.622 -9.673,13.549 -6.452,2.922 -16.903,6.168 -31.346,9.735 -15.48,3.561 -28.383,7.312 -38.7,11.259 -10.319,3.944 -19.221,10.176 -26.701,18.706 -7.484,8.522 -11.222,20.04 -11.222,34.543 0,12.216 3.415,23.345 10.257,33.402 6.83,10.049 16.894,17.999 30.183,23.855 13.287,5.852 29.086,8.781 47.404,8.781 27.092,0 48.434,-6.621 64.046,-19.85 15.606,-13.235 24.575,-30.794 26.895,-52.676 H 75.461 c -1.031,7.378 -4.321,13.229 -9.867,17.56 -5.55,4.322 -12.836,6.487 -21.864,6.487 -7.74,0 -13.68,-1.465 -17.801,-4.389 -4.131,-2.927 -6.191,-6.936 -6.191,-12.023 0,-6.108 3.288,-10.688 9.867,-13.742 6.578,-3.054 16.834,-6.108 30.766,-9.162 15.992,-4.073 29.021,-8.081 39.085,-12.023 10.06,-3.948 18.895,-10.307 26.509,-19.086 7.607,-8.78 11.541,-20.552 11.801,-35.31 0,-12.47 -3.549,-23.605 -10.643,-33.398 C 120.026,12.149 109.836,4.45 96.554,-1.145 83.26,-6.74 67.851,-9.542 50.307,-9.542 31.472,-9.542 14.704,-6.364 0,0"
             style="fill:#231f20;fill-opacity:1;fill-rule:nonzero;stroke:none"
             id="path57" /></g><g
           id="g59"
           transform="translate(600.7682,424.7782)"><path
             d="M 0,0 C 3.101,-1.743 5.523,-4.307 7.266,-7.694 9.008,-11.083 9.878,-15.151 9.878,-19.9 V -50.772 H -3.42 v 29.067 c 0,4.179 -1.045,7.392 -3.135,9.641 -2.089,2.247 -4.939,3.372 -8.549,3.372 -3.673,0 -6.57,-1.125 -8.691,-3.372 -2.123,-2.249 -3.182,-5.462 -3.182,-9.641 V -50.772 H -40.275 V 19.52 h 13.298 V -4.702 c 1.709,2.28 3.989,4.068 6.839,5.366 2.849,1.298 6.015,1.948 9.498,1.948 C -6.65,2.612 -3.104,1.74 0,0"
             style="fill:#231f20;fill-opacity:1;fill-rule:nonzero;stroke:none"
             id="path61" /></g><g
           id="g63"
           transform="translate(651.5394,386.497)"><path
             d="m 0,0 c 2.12,1.171 3.814,2.928 5.082,5.272 1.265,2.342 1.9,5.192 1.9,8.549 0,5.001 -1.316,8.849 -3.942,11.541 -2.629,2.691 -5.842,4.038 -9.642,4.038 -3.799,0 -6.982,-1.347 -9.546,-4.038 -2.565,-2.692 -3.848,-6.54 -3.848,-11.541 0,-5.003 1.25,-8.851 3.753,-11.541 2.5,-2.693 5.651,-4.037 9.451,-4.037 2.406,0 4.67,0.585 6.792,1.757 m -20.47,-9.974 c -4.053,2.247 -7.236,5.429 -9.547,9.546 -2.312,4.116 -3.467,8.866 -3.467,14.249 0,5.382 1.188,10.132 3.562,14.248 2.375,4.116 5.619,7.299 9.737,9.547 4.115,2.247 8.706,3.372 13.773,3.372 5.066,0 9.656,-1.125 13.774,-3.372 4.116,-2.248 7.361,-5.431 9.736,-9.547 2.375,-4.116 3.562,-8.866 3.562,-14.248 0,-5.383 -1.219,-10.133 -3.657,-14.249 -2.439,-4.117 -5.732,-7.299 -9.879,-9.546 -4.149,-2.248 -8.787,-3.372 -13.916,-3.372 -5.067,0 -9.626,1.124 -13.678,3.372"
             style="fill:#231f20;fill-opacity:1;fill-rule:nonzero;stroke:none"
             id="path65" /></g><g
           id="g67"
           transform="translate(716.1785,408.6301)"><path
             d="m 0,0 c -1.267,2.31 -2.976,4.084 -5.128,5.319 -2.154,1.235 -4.465,1.852 -6.935,1.852 -2.47,0 -4.749,-0.602 -6.84,-1.805 -2.088,-1.204 -3.784,-2.961 -5.082,-5.272 -1.299,-2.312 -1.946,-5.051 -1.946,-8.216 0,-3.167 0.647,-5.937 1.946,-8.312 1.298,-2.375 3.007,-4.195 5.13,-5.462 2.12,-1.267 4.384,-1.899 6.792,-1.899 2.47,0 4.781,0.617 6.935,1.852 2.152,1.234 3.861,3.007 5.128,5.319 1.267,2.311 1.9,5.082 1.9,8.312 C 1.9,-5.083 1.267,-2.313 0,0 M -5.128,16.527 C -2.154,14.975 0.191,12.966 1.9,10.496 V 18 h 13.393 v -53.004 c 0,-4.875 -0.982,-9.229 -2.944,-13.061 -1.963,-3.831 -4.908,-6.871 -8.835,-9.119 -3.927,-2.247 -8.676,-3.372 -14.247,-3.372 -7.473,0 -13.6,1.742 -18.381,5.224 -4.782,3.484 -7.488,8.233 -8.122,14.248 h 13.203 c 0.697,-2.405 2.2,-4.322 4.513,-5.746 2.311,-1.425 5.112,-2.137 8.406,-2.137 3.863,0 6.996,1.156 9.405,3.467 2.406,2.312 3.609,5.81 3.609,10.496 v 8.169 c -1.709,-2.469 -4.07,-4.528 -7.076,-6.174 -3.01,-1.646 -6.444,-2.47 -10.308,-2.47 -4.431,0 -8.485,1.14 -12.158,3.42 -3.673,2.279 -6.57,5.493 -8.69,9.641 -2.123,4.147 -3.183,8.912 -3.183,14.296 0,5.32 1.06,10.036 3.183,14.154 2.12,4.115 5.001,7.281 8.642,9.499 3.641,2.215 7.709,3.324 12.206,3.324 3.927,0 7.378,-0.776 10.356,-2.328"
             style="fill:#231f20;fill-opacity:1;fill-rule:nonzero;stroke:none"
             id="path69" /></g><g
           id="g71"
           transform="translate(777.7314,405.2579)"><path
             d="m 0,0 c -0.064,3.419 -1.298,6.158 -3.705,8.217 -2.408,2.056 -5.352,3.087 -8.835,3.087 -3.293,0 -6.063,-0.998 -8.311,-2.993 C -23.1,6.316 -24.476,3.545 -24.982,0 Z m 13.393,-8.929 h -38.47 c 0.315,-3.8 1.645,-6.777 3.988,-8.929 2.343,-2.154 5.226,-3.23 8.645,-3.23 4.939,0 8.453,2.121 10.544,6.364 h 14.342 c -1.518,-5.067 -4.433,-9.23 -8.737,-12.491 -4.309,-3.263 -9.596,-4.892 -15.864,-4.892 -5.068,0 -9.611,1.124 -13.631,3.373 -4.022,2.246 -7.157,5.429 -9.405,9.545 -2.247,4.116 -3.371,8.866 -3.371,14.249 0,5.445 1.108,10.226 3.323,14.344 2.218,4.115 5.321,7.281 9.31,9.499 3.991,2.216 8.581,3.324 13.774,3.324 5.002,0 9.483,-1.078 13.442,-3.23 3.956,-2.153 7.028,-5.209 9.212,-9.166 2.186,-3.958 3.278,-8.502 3.278,-13.631 0,-1.9 -0.127,-3.609 -0.38,-5.129"
             style="fill:#231f20;fill-opacity:1;fill-rule:nonzero;stroke:none"
             id="path73" /></g><g
           id="g75"
           transform="translate(807.8417,375.4781)"><path
             d="m 0,0 c -3.419,1.552 -6.127,3.657 -8.12,6.316 -1.996,2.661 -3.087,5.605 -3.278,8.835 H 1.995 c 0.252,-2.028 1.249,-3.704 2.992,-5.034 1.741,-1.331 3.909,-1.995 6.506,-1.995 2.534,0 4.513,0.505 5.939,1.52 1.423,1.012 2.136,2.311 2.136,3.894 0,1.71 -0.872,2.992 -2.613,3.847 -1.741,0.855 -4.511,1.789 -8.311,2.802 -3.927,0.95 -7.139,1.931 -9.641,2.945 -2.503,1.012 -4.653,2.565 -6.46,4.654 -1.805,2.09 -2.706,4.907 -2.706,8.454 0,2.913 0.838,5.572 2.517,7.979 1.678,2.407 4.084,4.307 7.219,5.7 3.135,1.392 6.824,2.09 11.067,2.09 6.269,0 11.271,-1.567 15.007,-4.702 3.737,-3.135 5.796,-7.362 6.175,-12.681 H 19.093 c -0.19,2.09 -1.062,3.751 -2.612,4.986 -1.553,1.235 -3.626,1.853 -6.223,1.853 -2.406,0 -4.258,-0.444 -5.555,-1.329 -1.3,-0.888 -1.947,-2.123 -1.947,-3.705 0,-1.774 0.885,-3.12 2.658,-4.037 1.773,-0.919 4.527,-1.853 8.265,-2.803 3.8,-0.95 6.933,-1.932 9.403,-2.944 2.47,-1.014 4.608,-2.581 6.413,-4.703 1.805,-2.122 2.738,-4.924 2.801,-8.406 0,-3.039 -0.84,-5.763 -2.517,-8.169 C 28.101,2.959 25.695,1.076 22.56,-0.285 19.425,-1.646 15.768,-2.327 11.589,-2.327 7.282,-2.327 3.421,-1.551 0,0"
             style="fill:#231f20;fill-opacity:1;fill-rule:nonzero;stroke:none"
             id="path77" /></g><g
           id="g79"
           transform="translate(849.0662,414.614)"><path
             d="m 0,0 c 2.218,4.085 5.287,7.251 9.214,9.499 3.927,2.247 8.422,3.372 13.489,3.372 6.522,0 11.922,-1.631 16.197,-4.892 4.274,-3.263 7.137,-7.837 8.596,-13.726 H 33.152 c -0.76,2.28 -2.043,4.068 -3.848,5.367 C 27.5,0.917 25.268,1.567 22.608,1.567 18.81,1.567 15.8,0.19 13.584,-2.565 11.366,-5.32 10.26,-9.23 10.26,-14.296 c 0,-5.003 1.106,-8.881 3.324,-11.636 2.216,-2.755 5.226,-4.133 9.024,-4.133 5.382,0 8.896,2.407 10.544,7.22 h 14.344 c -1.459,-5.7 -4.34,-10.228 -8.644,-13.584 -4.308,-3.357 -9.689,-5.034 -16.149,-5.034 -5.067,0 -9.562,1.124 -13.489,3.372 -3.927,2.247 -6.996,5.415 -9.214,9.499 -2.216,4.084 -3.324,8.849 -3.324,14.296 0,5.445 1.108,10.211 3.324,14.296"
             style="fill:#231f20;fill-opacity:1;fill-rule:nonzero;stroke:none"
             id="path81" /></g><g
           id="g83"
           transform="translate(944.7199,424.7782)"><path
             d="M 0,0 C 3.103,-1.743 5.525,-4.307 7.266,-7.694 9.008,-11.083 9.879,-15.151 9.879,-19.9 V -50.772 H -3.419 v 29.067 c 0,4.179 -1.044,7.392 -3.135,9.641 -2.09,2.247 -4.939,3.372 -8.549,3.372 -3.673,0 -6.569,-1.125 -8.692,-3.372 -2.122,-2.249 -3.182,-5.462 -3.182,-9.641 V -50.772 H -40.275 V 19.52 h 13.298 V -4.702 c 1.711,2.28 3.99,4.068 6.839,5.366 2.851,1.298 6.016,1.948 9.5,1.948 C -6.649,2.612 -3.103,1.74 0,0"
             style="fill:#231f20;fill-opacity:1;fill-rule:nonzero;stroke:none"
             id="path85" /></g><g
           id="g87"
           transform="translate(995.4921,386.497)"><path
             d="m 0,0 c 2.12,1.171 3.814,2.928 5.083,5.272 1.264,2.342 1.898,5.192 1.898,8.549 0,5.001 -1.315,8.849 -3.941,11.541 -2.629,2.691 -5.843,4.038 -9.641,4.038 -3.8,0 -6.983,-1.347 -9.548,-4.038 -2.563,-2.692 -3.846,-6.54 -3.846,-11.541 0,-5.003 1.249,-8.851 3.751,-11.541 2.501,-2.693 5.652,-4.037 9.452,-4.037 2.406,0 4.67,0.585 6.792,1.757 m -20.471,-9.974 c -4.052,2.247 -7.235,5.429 -9.546,9.546 -2.313,4.116 -3.467,8.866 -3.467,14.249 0,5.382 1.188,10.132 3.562,14.248 2.375,4.116 5.619,7.299 9.737,9.547 4.115,2.247 8.706,3.372 13.772,3.372 5.067,0 9.657,-1.125 13.775,-3.372 4.115,-2.248 7.362,-5.431 9.736,-9.547 2.375,-4.116 3.562,-8.866 3.562,-14.248 0,-5.383 -1.219,-10.133 -3.657,-14.249 -2.438,-4.117 -5.732,-7.299 -9.879,-9.546 -4.148,-2.248 -8.786,-3.372 -13.916,-3.372 -5.067,0 -9.627,1.124 -13.679,3.372"
             style="fill:#231f20;fill-opacity:1;fill-rule:nonzero;stroke:none"
             id="path89" /></g><g
           id="g91"
           transform="translate(1054.1938,386.497)"><path
             d="m 0,0 c 2.12,1.171 3.814,2.928 5.083,5.272 1.264,2.342 1.898,5.192 1.898,8.549 0,5.001 -1.315,8.849 -3.941,11.541 -2.629,2.691 -5.843,4.038 -9.641,4.038 -3.8,0 -6.983,-1.347 -9.548,-4.038 -2.563,-2.692 -3.846,-6.54 -3.846,-11.541 0,-5.003 1.249,-8.851 3.751,-11.541 2.501,-2.693 5.652,-4.037 9.452,-4.037 2.406,0 4.67,0.585 6.792,1.757 m -20.471,-9.974 c -4.052,2.247 -7.235,5.429 -9.546,9.546 -2.313,4.116 -3.466,8.866 -3.466,14.249 0,5.382 1.187,10.132 3.561,14.248 2.375,4.116 5.619,7.299 9.737,9.547 4.115,2.247 8.706,3.372 13.772,3.372 5.067,0 9.657,-1.125 13.775,-3.372 4.116,-2.248 7.362,-5.431 9.736,-9.547 2.375,-4.116 3.562,-8.866 3.562,-14.248 0,-5.383 -1.219,-10.133 -3.657,-14.249 -2.438,-4.117 -5.732,-7.299 -9.879,-9.546 -4.148,-2.248 -8.786,-3.372 -13.916,-3.372 -5.067,0 -9.627,1.124 -13.679,3.372"
             style="fill:#231f20;fill-opacity:1;fill-rule:nonzero;stroke:none"
             id="path93" /></g><path
           d="m 1096.034,374.006 h -13.298 v 70.292 h 13.298 z"
           style="fill:#231f20;fill-opacity:1;fill-rule:nonzero;stroke:none"
           id="path95" /><g
           id="g97"
           transform="translate(449.4176,454.9842)"><path
             d="m 0,0 c 0,-30.685 -24.875,-55.559 -55.559,-55.559 -30.685,0 -55.56,24.874 -55.56,55.559 h -52.548 c 0,-59.706 48.401,-108.108 108.108,-108.108 59.706,0 108.108,48.402 108.108,108.108 z"
             style="fill:#ed1c24;fill-opacity:1;fill-rule:nonzero;stroke:none"
             id="path99" /></g></g></g></g></svg>
